<?xml version="1.0" encoding="UTF-8"?>
<svg width="16px" height="16px" viewBox="0 0 16 16" version="1.1" xmlns="http://www.w3.org/2000/svg" xmlns:xlink="http://www.w3.org/1999/xlink">
    <title>删除</title>
    <g id="页面-1" stroke="none" stroke-width="1" fill="none" fill-rule="evenodd">
        <g id="容器平台-工具箱-日志查询" transform="translate(-802.000000, -202.000000)" fill="#A4ADC5" fill-rule="nonzero">
            <g id="编组-4备份-3" transform="translate(240.000000, 195.000000)">
                <g id="删除" transform="translate(562.000000, 7.000000)">
                    <g id="编组" transform="translate(3.000000, 2.000000)">
                        <polygon id="路径" points="10 1.40097403 10 2.65097403 0 2.65097403 0 1.40097403"></polygon>
                        <polygon id="路径" points="6.875 -0.469155844 6.875 0.780844156 3.125 0.780844156 3.125 -0.469155844"></polygon>
                        <path d="M9.41666667,3.22943723 L9.41666667,11.0649351 C9.41666667,11.94995 8.69808351,12.6666667 7.8125,12.6666667 L7.8125,12.6666667 L2.1875,12.6666667 C1.30191649,12.6666667 0.583333333,11.94995 0.583333333,11.0649351 L0.583333333,11.0649351 L0.583333333,3.22943723 L9.41666667,3.22943723 Z M4.80681818,6 L3.55681818,6 L3.55681818,10 L4.80681818,10 L4.80681818,6 Z M6.80681818,6 L5.55681818,6 L5.55681818,10 L6.80681818,10 L6.80681818,6 Z" id="形状结合"></path>
                    </g>
                </g>
            </g>
        </g>
    </g>
</svg>