<?xml version="1.0" encoding="UTF-8"?>
<svg width="16px" height="16px" viewBox="0 0 16 16" version="1.1" xmlns="http://www.w3.org/2000/svg" xmlns:xlink="http://www.w3.org/1999/xlink">
    <title>编辑</title>
    <g id="页面-1" stroke="none" stroke-width="1" fill="none" fill-rule="evenodd">
        <g id="应用管理" transform="translate(-374.000000, -163.000000)">
            <g id="编辑" transform="translate(374.000000, 163.000000)">
                <path d="M0,0 L16,0 L16,16 L0,16 L0,0 Z" id="edit-2/bulk-(Background)"></path>
                <g id="edit-2">
                    <path d="M2,14.6666667 C1.72666667,14.6666667 1.5,14.44 1.5,14.1666667 C1.5,13.8933333 1.72666667,13.6666667 2,13.6666667 L14,13.6666667 C14.2733333,13.6666667 14.5,13.8933333 14.5,14.1666667 C14.5,14.44 14.2733333,14.6666667 14,14.6666667 L2,14.6666667 Z" id="Vector" fill="#292D32" fill-rule="nonzero" opacity="0.400000006"></path>
                    <path d="M8.79338257,2.31998277 L7.98671583,3.12664954 C7.92004917,3.19331621 7.89338288,3.29998294 7.92004955,3.39331627 C8.42671621,5.159983 9.84004943,6.5733161 11.6067162,7.07998276 C11.6333828,7.08664942 11.66005,7.0933164 11.6867167,7.0933164 C11.76005,7.0933164 11.8267161,7.0666498 11.8800494,7.01331647 L12.6800499,6.20664978 C13.3400499,5.55331643 13.6600494,4.91998287 13.6600494,4.27998288 C13.6667161,3.61998288 13.3467166,2.97998277 12.6800499,2.31998277 C11.3867165,1.0266494 10.1200492,0.993316094 8.79338257,2.31998277 Z" id="Vector" fill="#292D32" fill-rule="nonzero" opacity="0.400000006"></path>
                    <path d="M9.84671656,7.39332517 C9.7000499,7.30665851 9.56004966,7.21332512 9.42004967,7.11332512 C9.30671633,7.03999179 9.17338272,6.93332491 9.04671605,6.82665825 C9.03338272,6.81999158 8.986716,6.77999184 8.93338267,6.7266585 C8.71338266,6.53999184 8.46671619,6.29999187 8.24671618,6.0333252 C8.22671618,6.01999186 8.1933831,5.97332499 8.14671644,5.91332499 C8.08004977,5.83332499 7.96671639,5.69999153 7.86671638,5.5466582 C7.78671639,5.44665819 7.69338282,5.29999175 7.60671616,5.15332508 C7.50004949,4.97332507 7.40671644,4.79332497 7.3133831,4.6066583 C7.22004977,4.40665829 7.14671618,4.2133252 7.08004951,4.0333252 L2.89338319,8.21999168 C2.80671652,8.30665835 2.72671638,8.47332514 2.70671638,8.58665848 L2.34671639,11.1399911 C2.28004972,11.5933245 2.40671657,12.0199911 2.68671656,12.3066578 C2.92671657,12.5399911 3.26004962,12.6666584 3.62004964,12.6666584 C3.70004963,12.6666584 3.78004973,12.6599913 3.86004972,12.6466579 L6.42004967,12.2866586 C6.54004967,12.2666586 6.70671646,12.1866581 6.78671646,12.0999915 L10.9733823,7.91332499 C10.7867156,7.84665832 10.606716,7.77332489 10.406716,7.68665822 C10.2133827,7.59332489 10.0267166,7.49999183 9.84671656,7.39332517 Z" id="Vector" fill="#292D32"></path>
                    <path d="M16,0 L16,16 L0,16 L0,0 L16,0 Z" id="Vector" opacity="0"></path>
                </g>
            </g>
        </g>
    </g>
</svg>