<?xml version="1.0" standalone="no"?><!DOCTYPE svg PUBLIC "-//W3C//DTD SVG 1.1//EN" "http://www.w3.org/Graphics/SVG/1.1/DTD/svg11.dtd"><svg t="1660524464440" class="icon" viewBox="0 0 1024 1024" version="1.1" xmlns="http://www.w3.org/2000/svg" p-id="7479" width="128" height="128" xmlns:xlink="http://www.w3.org/1999/xlink"><defs><style type="text/css">@font-face { font-family: feedback-iconfont; src: url("//at.alicdn.com/t/font_1031158_u69w8yhxdu.woff2?t=1630033759944") format("woff2"), url("//at.alicdn.com/t/font_1031158_u69w8yhxdu.woff?t=1630033759944") format("woff"), url("//at.alicdn.com/t/font_1031158_u69w8yhxdu.ttf?t=1630033759944") format("truetype"); }
</style></defs><path d="M744.041026 405.307077c10.371282 0 20.073026 5.146256 25.88882 13.745231l117.418667 173.594256c3.505231 5.159385 5.369436 11.264 5.369436 17.499898v177.887179A39.05641 39.05641 0 0 1 853.661538 827.076923h-683.323076A39.05641 39.05641 0 0 1 131.282051 788.020513V610.146462c0-6.235897 1.864205-12.340513 5.369436-17.499898l117.418667-173.594256a31.245128 31.245128 0 0 1 25.88882-13.745231h464.082052z m-7.614359 23.433846h-448.853334c-9.491692 0-18.418872 4.358564-24.287179 11.736615l-1.404718 1.90359-99.012923 145.985641a7.837538 7.837538 0 0 0 5.159384 12.104205l1.260308 0.105026h233.944616l0.013128 2.441846c1.299692 59.260718 49.493333 106.902974 108.754051 106.902975 58.958769 0 106.968615-47.156513 108.727795-106.010257l0.052513-3.334564h233.931487a7.837538 7.837538 0 0 0 7.049846-11.106462l-0.630154-1.102769-99.012923-145.985641a31.048205 31.048205 0 0 0-23.32882-13.548307l-2.363077-0.091898z m-468.309334-195.347692l76.918154 77.325128-16.489025 16.567795-76.918154-77.325128 16.489025-16.554667z m484.640821 0l16.489025 16.580923-76.931282 77.325128-16.475897-16.580923 76.931282-77.325128zM522.108718 210.051282v109.357949h-23.315692V210.051282h23.315692z" fill="#ECF1F7" p-id="7480"></path></svg>