<?xml version="1.0" encoding="UTF-8"?>
<svg width="16px" height="16px" viewBox="0 0 16 16" version="1.1" xmlns="http://www.w3.org/2000/svg" xmlns:xlink="http://www.w3.org/1999/xlink">
    <title>链接</title>
    <g id="页面-1" stroke="none" stroke-width="1" fill="none" fill-rule="evenodd">
        <g id="组建管理-概览" transform="translate(-602.000000, -526.000000)">
            <g id="切换模块" transform="translate(236.000000, 509.000000)">
                <g id="编组-25" transform="translate(271.000000, 6.000000)">
                    <g id="链接" transform="translate(95.000000, 11.000000)">
                        <rect id="矩形" fill="#2467F6" opacity="0" x="0" y="0" width="16" height="16"></rect>
                        <g id="编组" transform="translate(1.333333, 4.000000)" stroke="#2467F6" stroke-width="1.2">
                            <path d="M8.66666667,2.66666667 L5.33333333,2.66666667 C3.86056667,2.66666667 2.66666667,3.86056667 2.66666667,5.33333333 C2.66666667,6.8061 3.86056667,8 5.33333333,8 L10.6666667,8 C12.1394333,8 13.3333333,6.8061 13.3333333,5.33333333 C13.3333333,4.65703333 13.0815667,4.03953333 12.6666667,3.56946667" id="路径"></path>
                            <path d="M0.666666667,4.43053333 C0.251756667,3.96046667 0,3.34296667 0,2.66666667 C0,1.1939 1.19390667,0 2.66666667,0 L8,0 C9.47276667,0 10.6666667,1.1939 10.6666667,2.66666667 C10.6666667,4.13943333 9.47276667,5.33333333 8,5.33333333 L4.66666667,5.33333333" id="路径"></path>
                        </g>
                    </g>
                </g>
            </g>
        </g>
    </g>
</svg>