<?xml version="1.0" encoding="UTF-8"?>
<svg width="16px" height="16px" viewBox="0 0 16 16" version="1.1" xmlns="http://www.w3.org/2000/svg" xmlns:xlink="http://www.w3.org/1999/xlink">
    <title>vuesax/linear/arrow-right</title>
    <g id="页面-1" stroke="none" stroke-width="1" fill="none" fill-rule="evenodd">
        <g id="应用管理" transform="translate(-967.000000, -350.000000)">
            <g id="编组-30备份-3" transform="translate(920.000000, 272.000000)">
                <g id="arrow-right" transform="translate(47.000000, 78.000000)">
                    <path d="M16,0 L16,16 L0,16 L0,0 L16,0 Z" id="Vector" opacity="0" transform="translate(8.000000, 8.000000) rotate(-180.000000) translate(-8.000000, -8.000000) "></path>
                    <path d="M9.94983131,4.6998618 C10.0829646,4.56672853 10.2912964,4.55462551 10.4381022,4.66355274 L10.4801614,4.69986182 L13.5151612,7.73486191 C13.6482945,7.8679952 13.6603975,8.07632704 13.5514703,8.22313278 L13.5151612,8.26519199 L10.4801614,11.3001916 C10.3337148,11.4466382 10.0962779,11.4466382 9.94983128,11.3001916 C9.81669801,11.1670583 9.80459499,10.9587265 9.91352223,10.8119207 L9.94983131,10.7698615 L12.7195,8 L9.94983128,5.23019189 C9.81669801,5.0970586 9.80459499,4.88872676 9.91352223,4.74192102 L9.94983131,4.6998618 Z" id="Vector" fill="#2467F6" fill-rule="nonzero"></path>
                    <path d="M13.165,7.625 C13.3721067,7.625 13.54,7.84885763 13.54,8.125 C13.54,8.37813051 13.398923,8.58732731 13.2158852,8.62043559 L13.165,8.625 L2.75,8.625 C2.54289322,8.625 2.375,8.40114237 2.375,8.125 C2.375,7.87186949 2.51607694,7.66267269 2.69911472,7.62956441 L2.75,7.625 L13.165,7.625 Z" id="Vector" fill="#2467F6" fill-rule="nonzero"></path>
                </g>
            </g>
        </g>
    </g>
</svg>