<?xml version="1.0" encoding="UTF-8"?>
<svg width="16px" height="16px" viewBox="0 0 16 16" version="1.1" xmlns="http://www.w3.org/2000/svg" xmlns:xlink="http://www.w3.org/1999/xlink">
    <title>时间</title>
    <g id="页面-1" stroke="none" stroke-width="1" fill="none" fill-rule="evenodd">
        <g id="组建管理-概览" transform="translate(-268.000000, -310.000000)" fill="#FFFFFF">
            <g id="编组-11" transform="translate(260.000000, 303.000000)">
                <g id="时间" transform="translate(8.000000, 7.000000)">
                    <rect id="矩形" opacity="0" x="0" y="0" width="16" height="16"></rect>
                    <g id="编组" transform="translate(1.733333, 1.333333)" fill-rule="nonzero">
                        <path d="M6.26666667,1.56666667 C2.80569582,1.56666667 0,4.37236248 0,7.83333333 C0,11.2943042 2.80569582,14.1 6.26666667,14.1 C9.72763752,14.1 12.5333333,11.2943042 12.5333333,7.83333333 C12.5333333,4.37236248 9.72763752,1.56666667 6.26666667,1.56666667 Z M6.26666667,2.76666667 C9.06489582,2.76666667 11.3333333,5.03510418 11.3333333,7.83333333 C11.3333333,10.6315625 9.06489582,12.9 6.26666667,12.9 C3.46843752,12.9 1.2,10.6315625 1.2,7.83333333 C1.2,5.03510418 3.46843752,2.76666667 6.26666667,2.76666667 Z" id="路径"></path>
                        <polygon id="路径" points="8.6 -0.433333333 8.6 0.766666667 3.93333333 0.766666667 3.93333333 -0.433333333"></polygon>
                        <polygon id="路径" points="10.5090693 1.7424026 11.3575974 2.59093074 10.3575974 3.59093074 9.50906926 2.7424026"></polygon>
                        <polygon id="路径" points="6.86666667 5.83333333 6.86666667 8.83333333 5.66666667 8.83333333 5.66666667 5.83333333"></polygon>
                    </g>
                </g>
            </g>
        </g>
    </g>
</svg>