<?xml version="1.0" encoding="UTF-8"?>
<svg width="18px" height="18px" viewBox="0 0 18 18" version="1.1" xmlns="http://www.w3.org/2000/svg" xmlns:xlink="http://www.w3.org/1999/xlink">
    <title>上传</title>
    <g id="页面-1" stroke="none" stroke-width="1" fill="none" fill-rule="evenodd">
        <g id="离线应用模版导入" transform="translate(-1377.000000, -256.000000)">
            <g id="编组-22" transform="translate(236.000000, 238.000000)">
                <g id="上传" transform="translate(1141.000000, 18.000000)">
                    <path d="M0,0 L18,0 L18,18 L0,18 L0,0 Z" id="export/bold-(Background)"></path>
                    <g id="export">
                        <path d="M9.5625,6.75 L9.5625,11.4375 C9.5625,11.745 9.3075,12 9,12 C8.6925,12 8.4375,11.745 8.4375,11.4375 L8.4375,6.75 L5.39999986,6.75 C3,6.75 1.5,8.25 1.5,10.6499999 L1.5,12.5925007 C1.5,15.0000007 3,16.5 5.39999986,16.5 L12.5925007,16.5 C14.9925007,16.5 16.4925284,14.9999995 16.4925284,12.5999994 L16.4925284,10.6499999 C16.5,8.25 15,6.75 12.5999994,6.75 L9.5625,6.75 Z" id="Vector" fill="#292D32" fill-rule="nonzero"></path>
                        <path d="M11.1149744,4.97250187 C11.2274744,5.08500188 11.3699749,5.13750172 11.5124749,5.13750172 C11.6549749,5.13750172 11.7974747,5.08500188 11.9099747,4.97250187 C12.1274747,4.75500188 12.1274747,4.39500191 11.9099747,4.17750192 L9.39747441,1.66500183 C9.17997441,1.44750184 8.81997462,1.44750184 8.60247463,1.66500183 L6.08997437,4.17750192 C5.87247437,4.39500191 5.87247437,4.75500188 6.08997437,4.97250187 C6.30747436,5.19000187 6.66747466,5.19000187 6.88497466,4.97250187 L8.43747443,3.42000175 L8.43747443,6.75000179 L9.56247461,6.75000179 L9.56247461,3.42000175 L11.1149744,4.97250187 Z" id="Vector" fill="#292D32" fill-rule="nonzero"></path>
                        <path d="M18,0 L18,18 L0,18 L0,0 L18,0 Z" id="Vector" opacity="0" transform="translate(9.000000, 9.000000) rotate(-180.000000) translate(-9.000000, -9.000000) "></path>
                    </g>
                </g>
            </g>
        </g>
    </g>
</svg>