<?xml version="1.0" encoding="UTF-8"?>
<svg width="24px" height="24px" viewBox="0 0 24 24" version="1.1" xmlns="http://www.w3.org/2000/svg" xmlns:xlink="http://www.w3.org/1999/xlink">
    <title>日志查询</title>
    <g id="页面-1" stroke="none" stroke-width="1" fill="none" fill-rule="evenodd">
        <g id="容器平台-工具箱" transform="translate(-1008.000000, -858.000000)">
            <g id="编组-31" transform="translate(978.000000, 754.000000)">
                <g id="编组-30" transform="translate(20.000000, 85.000000)">
                    <g id="日志查询" transform="translate(10.000000, 19.000000)">
                        <path d="M0,0 L24,0 L24,24 L0,24 L0,0 Z" id="document/bold-(Background)"></path>
                        <g id="document">
                            <path d="M24,0 L24,24 L0,24 L0,0 L24,0 Z" id="Vector" opacity="0" transform="translate(12.000000, 12.000000) rotate(-180.000000) translate(-12.000000, -12.000000) "></path>
                            <path d="M21.501597,16.4394913 C20.7540376,14.9906299 19.2427058,14 17.5,14 C15.0147186,14 13,16.0147186 13,18.5 C13,19.9140475 13.6522157,21.1757619 14.6722296,22.0007255 L8.06999969,22 C4.98999977,22 2.5,20 2.5,16.4300003 L2.5,16.4300003 L2.5,7.57000017 C2.5,4 4.98999977,2 8.06999969,2 L8.06999969,2 L12.3100004,2 C12.8600004,2 13.3100004,2.44999999 13.3100004,3 L13.3100004,3 L13.3100004,5.88999987 C13.3100004,8.25999975 15.2400007,10.1899996 17.6100006,10.1899996 L17.6100006,10.1899996 L20.5,10.1899996 C21.05,10.1899996 21.5,10.6399996 21.5,11.1899996 L21.5,11.1899996 Z" id="形状结合" fill="#CCD9FF" fill-rule="nonzero"></path>
                            <path d="M20.1338426,20.1825549 C20.481711,19.6572 20.6875914,19.0253547 20.6875914,18.3438132 C20.6875914,16.4979716 19.1896281,15 17.343796,15 C15.4979639,15 14,16.4979716 14,18.3438132 C14,20.1896548 15.4979639,21.6876264 17.343796,21.6876264 C18.025334,21.6876264 18.6500774,21.4817436 19.182529,21.1338734 L19.8498673,21.8012166 C19.984755,21.936105 20.1551398,22 20.3326236,22 C20.5101075,22 20.6804922,21.936105 20.81538,21.8012166 C21.0638574,21.5456385 21.063857,21.1196749 20.8011809,20.8498981 L20.1338426,20.1825549 Z" id="形状结合" fill="#CCD9FF" fill-rule="nonzero"></path>
                            <path d="M14.6799316,2.64999312 L14.6799316,6.13999271 C14.6799316,7.59999275 15.9199317,8.80999327 17.4299316,8.80999327 C18.3799316,8.81999254 19.6999313,8.81999254 20.8299313,8.81999254 C21.3999313,8.81999254 21.6999306,8.14999285 21.2999306,7.74999285 C19.8599305,6.2999928 17.2799315,3.68999307 15.7999315,2.20999305 C15.3899315,1.79999305 14.6799316,2.07999313 14.6799316,2.64999312 Z" id="Vector" fill="#CCD9FF" fill-rule="nonzero"></path>
                        </g>
                    </g>
                </g>
            </g>
        </g>
    </g>
</svg>