<?xml version="1.0" encoding="UTF-8"?>
<svg width="22px" height="22px" viewBox="0 0 22 22" version="1.1" xmlns="http://www.w3.org/2000/svg" xmlns:xlink="http://www.w3.org/1999/xlink">
    <title>工具箱</title>
    <g id="页面-1" stroke="none" stroke-width="1" fill="none" fill-rule="evenodd">
        <g id="容器平台-工具箱" transform="translate(-1412.000000, -863.000000)" fill="#FFFFFF">
            <g id="编组-32" transform="translate(1400.000000, 854.000000)">
                <g id="工具箱" transform="translate(12.000000, 9.000000)">
                    <rect id="矩形" opacity="0" x="0" y="0" width="22" height="22"></rect>
                    <g id="编组" transform="translate(1.833333, 1.833333)" fill-rule="nonzero">
                        <path d="M13.2196658,10.3744379 C13.2196658,10.3744379 11.0480639,10.3321068 9.67306387,13.5404401 C9.77372427,13.5604499 12.855317,16.8957728 12.855317,16.8957728 C13.5711243,17.590298 14.7406024,17.590298 15.4564097,16.8957728 L16.494936,15.889002 C17.2107433,15.1944768 17.2107433,14.0669495 16.494936,13.3721916 L13.2196658,10.3744379 Z M13.6720177,16.2010149 L11.0419526,13.6765436 C10.8604377,13.5052971 10.8604377,13.2235316 11.0419526,13.0522852 C11.2234676,12.8812715 11.5156623,12.8812715 11.6871578,13.0522852 L14.3172229,15.5767565 C14.4887184,15.7377654 14.4887184,16.0197636 14.3172229,16.2010149 C14.1357079,16.3720286 13.8435132,16.3720286 13.6720177,16.2010149 Z M15.1339236,14.7814845 L12.4938391,12.2570131 C12.3123241,12.0857667 12.3123241,11.8040012 12.4938391,11.6327548 C12.675354,11.4617411 12.9675488,11.4617411 13.1390443,11.6327548 L15.7691093,14.1574588 C15.9606437,14.3184677 15.9606437,14.6002332 15.7791288,14.7814845 C15.5976138,14.9524982 15.3054191,14.9524982 15.1339236,14.7814845 Z M4.08411467,5.60025675 L5.7689553,7.27337957 C5.9465407,7.44972989 6.23275622,7.45102047 6.41192474,7.27627879 L7.05540541,6.64869705 C7.23662041,6.47195946 7.24025007,6.18178154 7.06351247,6.00056654 C7.06153107,5.99853494 7.05953085,5.99652179 7.05751205,5.99452735 L5.38477751,4.34196787 L5.38477751,4.34196787 L5.69540267,4.03661058 C5.87591709,3.85915748 5.87839878,3.56896748 5.70094569,3.38845306 C5.69844248,3.38590667 5.6959096,3.38338962 5.69334757,3.38090242 L2.71910976,0.493540341 C2.54149173,0.321110425 2.25904909,0.320877897 2.08114739,0.493015122 L0.139623491,2.37162855 C-0.0422897767,2.54764735 -0.0470681864,2.83780862 0.128950614,3.01972189 C0.132424355,3.02331196 0.135956558,3.026845 0.139545807,3.03031958 L3.12026653,5.91581877 C3.29791946,6.08779644 3.57996153,6.08786054 3.75769262,5.91596366 L4.08411467,5.60025675 L4.08411467,5.60025675 Z" id="形状"></path>
                        <path d="M12.6537632,7.74455971 C12.7546566,7.77480704 12.8352781,7.80505437 12.9361715,7.84530658 C13.4201337,7.99631055 13.9444066,8.04656765 14.4383882,8.00631544 C15.3557493,7.92581101 16.2630909,7.54329863 16.9588593,6.83853587 C17.7855794,6.02302134 18.1786676,4.90573155 18.1283374,3.80821885 C18.1283374,3.76796663 18.1283374,3.72771442 18.118318,3.6874622 L16.3239066,3.6874622 L15.6080993,4.40222985 L15.0635545,4.94575109 L14.5089903,5.49950988 L13.273304,5.17446693 C13.1146242,5.13272675 12.9903612,5.00934769 12.9474895,4.85096985 L12.6134524,3.61696266 L12.6134524,3.61696266 L13.1680166,3.06320387 L13.7123284,2.51944996 L14.4281357,1.80468231 L14.4281357,0.0128770725 C14.387825,0.0128770725 14.3274753,0.00287218677 14.2869315,0.00287218677 C13.2083274,-0.037380028 12.0991989,0.345132348 11.2624594,1.17065176 C10.5566715,1.87541452 10.1635834,2.77143348 10.0929813,3.6874622 C10.0526705,4.24122099 10.1130201,4.79474712 10.2945351,5.31825858 C10.2945351,5.32826346 10.3045545,5.33826835 10.3045545,5.35851079 C10.3548847,5.5397621 10.3651372,5.76126561 10.1433115,5.99277402 C9.85088369,6.27453952 1.21086611,14.469239 1.21086611,14.469239 C0.49505883,15.0834924 0.545389029,16.2210247 1.21086611,16.8955401 C1.88636263,17.5600506 3.01552998,17.6003029 3.6406963,16.8855352 C3.6406963,16.8855352 11.7767128,8.28808094 12.1294903,7.9358159 C12.3110052,7.75456459 12.5025396,7.72431726 12.6537632,7.74455971 Z M2.03758624,16.0702534 C1.80574111,15.8387449 1.80574111,15.4862472 2.03758624,15.2547388 C2.26943137,15.0232304 2.6224418,15.0232304 2.85428693,15.2547388 C3.06585581,15.485531 3.06585581,15.8394612 2.85428693,16.0702534 C2.6224418,16.3017618 2.26943137,16.3017618 2.03758624,16.0702534 Z" id="形状"></path>
                    </g>
                </g>
            </g>
        </g>
    </g>
</svg>