<?xml version="1.0" encoding="UTF-8"?>
<svg width="24px" height="24px" viewBox="0 0 24 24" version="1.1" xmlns="http://www.w3.org/2000/svg" xmlns:xlink="http://www.w3.org/1999/xlink">
    <title>调用链路查询</title>
    <g id="页面-1" stroke="none" stroke-width="1" fill="none" fill-rule="evenodd">
        <g id="容器平台-工具箱" transform="translate(-1008.000000, -930.000000)">
            <g id="编组-31" transform="translate(978.000000, 754.000000)">
                <g id="编组-30备份" transform="translate(20.000000, 157.000000)">
                    <g id="调用链路查询" transform="translate(10.000000, 19.000000)">
                        <path d="M0,0 L24,0 L24,24 L0,24 L0,0 Z" id="command/bulk-(Background)"></path>
                        <g id="command">
                            <path d="M24,0 L24,24 L0,24 L0,0 L24,0 Z" id="Vector" opacity="0"></path>
                            <path d="M16,8 L16,16 L8,16 L8,8 L16,8 Z" id="Vector" fill="#CCD9FF"></path>
                            <path d="M8,19 L8,16 L5,16 C3.35000002,16 2,17.35 2,19 C2,20.65 3.35000002,22 5,22 C6.64999998,22 8,20.65 8,19 Z" id="Vector" fill="#CCD9FF" fill-rule="nonzero"></path>
                            <path d="M8,8 L8,5 C8,3.35000002 6.64999998,2 5,2 C3.35000002,2 2,3.35000002 2,5 C2,6.64999998 3.35000002,8 5,8 L8,8 Z" id="Vector" fill="#CCD9FF" fill-rule="nonzero"></path>
                            <path d="M19,8 C20.65,8 22,6.64999998 22,5 C22,3.35000002 20.65,2 19,2 C17.35,2 16,3.35000002 16,5 L16,8 L19,8 Z" id="Vector" fill="#CCD9FF" fill-rule="nonzero"></path>
                            <path d="M22,19 C22,17.35 20.65,16 19,16 L16,16 L16,19 C16,20.65 17.35,22 19,22 C20.65,22 22,20.65 22,19 Z" id="Vector" fill="#CCD9FF" fill-rule="nonzero"></path>
                        </g>
                    </g>
                </g>
            </g>
        </g>
    </g>
</svg>