<?xml version="1.0" encoding="UTF-8"?>
<svg width="16px" height="16px" viewBox="0 0 16 16" version="1.1" xmlns="http://www.w3.org/2000/svg" xmlns:xlink="http://www.w3.org/1999/xlink">
    <title>hierarchy-3/outline</title>
    <g id="页面-1" stroke="none" stroke-width="1" fill="none" fill-rule="evenodd">
        <g id="容器平台-工具箱-日志查询" transform="translate(-1387.000000, -527.000000)">
            <g id="编组-6备份-4" transform="translate(220.000000, 521.000000)">
                <g id="编组-8" transform="translate(1160.000000, 3.000000)">
                    <g id="hierarchy-3/outline" transform="translate(7.000000, 3.000000)">
                        <path d="M0,0 L16,0 L16,16 L0,16 L0,0 Z" id="hierarchy-3/outline-(Background)"></path>
                        <g id="hierarchy-3">
                            <path d="M0.833333333,3.33333333 C0.833333333,1.95333338 1.95333338,0.833333333 3.33333333,0.833333333 C4.71333329,0.833333333 5.83333333,1.95333338 5.83333333,3.33333333 C5.83333333,4.71333329 4.71333329,5.83333333 3.33333333,5.83333333 C1.95333338,5.83333333 0.833333333,4.71333329 0.833333333,3.33333333 Z M1.83333333,3.33333333 C1.83333333,4.16000001 2.50666666,4.83333333 3.33333333,4.83333333 C4.16000001,4.83333333 4.83333333,4.16000001 4.83333333,3.33333333 C4.83333333,2.50666666 4.16000001,1.83333333 3.33333333,1.83333333 C2.50666666,1.83333333 1.83333333,2.50666666 1.83333333,3.33333333 Z" id="Vector" fill="#292D32"></path>
                            <path d="M10.1666667,8 C10.1666667,6.62000004 11.2866667,5.5 12.6666667,5.5 C14.0466666,5.5 15.1666667,6.62000004 15.1666667,8 C15.1666667,9.37999996 14.0466666,10.5 12.6666667,10.5 C11.2866667,10.5 10.1666667,9.37999996 10.1666667,8 Z M11.1666667,8 C11.1666667,8.82666667 11.84,9.5 12.6666667,9.5 C13.4933333,9.5 14.1666667,8.82666667 14.1666667,8 C14.1666667,7.17333333 13.4933333,6.5 12.6666667,6.5 C11.84,6.5 11.1666667,7.17333333 11.1666667,8 Z" id="Vector" fill="#292D32"></path>
                            <path d="M0.833333333,12.6666667 C0.833333333,11.2866667 1.95333338,10.1666667 3.33333333,10.1666667 C4.71333329,10.1666667 5.83333333,11.2866667 5.83333333,12.6666667 C5.83333333,14.0466666 4.71333329,15.1666667 3.33333333,15.1666667 C1.95333338,15.1666667 0.833333333,14.0466666 0.833333333,12.6666667 Z M1.83333333,12.6666667 C1.83333333,13.4933333 2.50666666,14.1666667 3.33333333,14.1666667 C4.16000001,14.1666667 4.83333333,13.4933333 4.83333333,12.6666667 C4.83333333,11.84 4.16000001,11.1666667 3.33333333,11.1666667 C2.50666666,11.1666667 1.83333333,11.84 1.83333333,12.6666667 Z" id="Vector" fill="#292D32"></path>
                            <path d="M2.83333333,10.6666667 L2.83333333,5.33333333 C2.83333333,5.06 3.06,4.83333333 3.33333333,4.83333333 C3.60666666,4.83333333 3.83333333,5.06 3.83333333,5.33333333 C3.83333333,6.79333337 4.53999996,7.5 6,7.5 L10.6666667,7.5 C10.94,7.5 11.1666667,7.72666667 11.1666667,8 C11.1666667,8.27333333 10.94,8.5 10.6666667,8.5 L6,8.5 C5.09333332,8.5 4.36666667,8.26666017 3.83333333,7.82666016 L3.83333333,10.6666667 C3.83333333,10.94 3.60666666,11.1666667 3.33333333,11.1666667 C3.06,11.1666667 2.83333333,10.94 2.83333333,10.6666667 Z" id="Vector" fill="#292D32" fill-rule="nonzero"></path>
                            <path d="M16,0 L16,16 L0,16 L0,0 L16,0 Z" id="Vector" opacity="0"></path>
                        </g>
                    </g>
                </g>
            </g>
        </g>
    </g>
</svg>