<?xml version="1.0" encoding="UTF-8"?>
<svg width="16px" height="16px" viewBox="0 0 16 16" version="1.1" xmlns="http://www.w3.org/2000/svg" xmlns:xlink="http://www.w3.org/1999/xlink">
    <title>应用服务总数</title>
    <g id="页面-1" stroke="none" stroke-width="1" fill="none" fill-rule="evenodd">
        <g id="演示项目" transform="translate(-276.000000, -263.000000)">
            <g id="内容区" transform="translate(220.000000, 0.000000)">
                <g id="应用" transform="translate(16.000000, 182.000000)">
                    <g id="应用服务总数" transform="translate(24.000000, 58.000000)">
                        <g id="编组-18" transform="translate(16.000000, 20.000000)">
                            <g id="应用服务总数" transform="translate(0.000000, 3.000000)">
                                <rect id="矩形" fill="#08153A" x="0" y="0" width="16" height="16" rx="2"></rect>
                                <g id="SD卡内存卡" transform="translate(3.111111, 2.222222)" fill="#FFFFFF" fill-rule="nonzero">
                                    <path d="M7.50793651,0 C7.61269841,0 7.71746032,0.0349206349 7.78730159,0.13968254 L9.70793651,2.68888889 C9.74285714,2.75873016 9.77777778,2.82857143 9.77777778,2.8984127 L9.77777778,10.4761905 C9.77777778,10.8603175 9.46349206,11.1746032 9.07936508,11.1746032 L0.698412698,11.1746032 C0.314285714,11.1746032 0,10.8603175 0,10.4761905 L0,0.698412698 C0,0.314285714 0.314285714,0 0.698412698,0 L7.50793651,0 Z M2.79365079,1.3968254 L1.3968254,1.3968254 L1.3968254,3.49206349 L2.79365079,3.49206349 L2.79365079,1.3968254 Z M4.88888889,1.3968254 L3.49206349,1.3968254 L3.49206349,3.49206349 L4.88888889,3.49206349 L4.88888889,1.3968254 Z M6.98412698,1.3968254 L5.58730159,1.3968254 L5.58730159,3.49206349 L6.98412698,3.49206349 L6.98412698,1.3968254 Z" id="形状结合"></path>
                                </g>
                            </g>
                        </g>
                    </g>
                </g>
            </g>
        </g>
    </g>
</svg>