<?xml version="1.0" encoding="UTF-8"?>
<svg width="16px" height="16px" viewBox="0 0 16 16" version="1.1" xmlns="http://www.w3.org/2000/svg" xmlns:xlink="http://www.w3.org/1999/xlink">
    <title>备份</title>
    <g id="页面-1" stroke="none" stroke-width="1" fill="none" fill-rule="evenodd">
        <g id="应用管理" transform="translate(-824.000000, -324.000000)">
            <g id="编组-30" transform="translate(796.000000, 272.000000)">
                <g id="编组-4" transform="translate(28.000000, 12.000000)">
                    <g id="编组-29" transform="translate(0.000000, 38.000000)">
                        <g id="备份" transform="translate(0.000000, 2.000000)">
                            <rect id="矩形" fill="#08153A" x="0" y="0" width="16" height="16" rx="2"></rect>
                            <g id="编组" transform="translate(3.500000, 2.500000)" fill="#FFFFFF" fill-rule="nonzero">
                                <path d="M9,8.7195122 L9,10.597561 C9,10.8198219 8.82730983,11 8.61428571,11 L0.385714286,11 C0.172690168,11 0,10.8198219 0,10.597561 L0,8.7195122 L9,8.7195122 Z M1.54285714,0 L1.54285714,4.42682927 L1.5444,4.46224391 C1.55613005,4.60000512 1.63483824,4.72183071 1.7528308,4.78485586 C1.87082335,4.84788101 2.01156788,4.84327502 2.12554286,4.77265853 L3.22431428,4.09119513 L4.3002,4.77104878 C4.41930412,4.84630311 4.56803666,4.84873906 4.68934595,4.77742222 C4.81065524,4.70610539 4.8857077,4.5721079 4.88571429,4.42682927 L4.88571429,0 L8.61428571,0 C8.82730983,0 9,0.180178089 9,0.402439025 L9,7.91463415 L0,7.91463415 L0,0.402439025 C0,0.195150217 0.150929117,0.0217777699 0.348685715,0.00187804459 L0.385714286,0 L1.54285714,0 Z M4.11428571,0.00107316654 L4.11428571,3.71236585 L3.42617143,3.27773171 L3.38862857,3.25680488 C3.27309072,3.20093364 3.13856818,3.20816225 3.02914285,3.27612195 L2.31428572,3.71907317 L2.31428572,0.00107316654 L4.11428571,0.00107316654 Z" id="形状"></path>
                            </g>
                        </g>
                    </g>
                </g>
            </g>
        </g>
    </g>
</svg>