<?xml version="1.0" standalone="no"?><!DOCTYPE svg PUBLIC "-//W3C//DTD SVG 1.1//EN" "http://www.w3.org/Graphics/SVG/1.1/DTD/svg11.dtd"><svg t="1658904768257" class="icon" viewBox="0 0 1024 1024" version="1.1" xmlns="http://www.w3.org/2000/svg" p-id="1325" xmlns:xlink="http://www.w3.org/1999/xlink" width="48" height="48"><defs><style type="text/css">@font-face { font-family: feedback-iconfont; src: url("//at.alicdn.com/t/font_1031158_u69w8yhxdu.woff2?t=1630033759944") format("woff2"), url("//at.alicdn.com/t/font_1031158_u69w8yhxdu.woff?t=1630033759944") format("woff"), url("//at.alicdn.com/t/font_1031158_u69w8yhxdu.ttf?t=1630033759944") format("truetype"); }
</style></defs><path d="M0 0m128 0l768 0q128 0 128 128l0 768q0 128-128 128l-768 0q-128 0-128-128l0-768q0-128 128-128Z" fill="#2467F6" p-id="1326"></path><path d="M800 718.08v120.192a25.216 25.216 0 0 1-24.704 25.728H248.704a25.216 25.216 0 0 1-24.704-25.728V718.08h576zM322.752 160v283.328l0.064 2.24c0.768 8.832 5.76 16.64 13.376 20.672a23.808 23.808 0 0 0 23.872-0.768l70.272-43.648 68.864 43.52c7.68 4.8 17.152 4.992 24.96 0.384a25.984 25.984 0 0 0 12.544-22.4V160h238.592c13.632 0 24.704 11.52 24.704 25.728v480.832h-576V185.728c0-13.248 9.6-24.32 22.336-25.6l2.368-0.128h74.048z m164.544 0.064v237.504l-44.032-27.776-2.368-1.344a23.808 23.808 0 0 0-23.04 1.28l-45.76 28.288V160.064h115.2z" fill="#FFFFFF" p-id="1327"></path></svg>