<?xml version="1.0" encoding="UTF-8"?>
<svg width="16px" height="16px" viewBox="0 0 16 16" version="1.1" xmlns="http://www.w3.org/2000/svg" xmlns:xlink="http://www.w3.org/1999/xlink">
    <title>组件总数</title>
    <g id="页面-1" stroke="none" stroke-width="1" fill="none" fill-rule="evenodd">
        <g id="演示项目" transform="translate(-693.000000, -263.000000)">
            <g id="内容区" transform="translate(220.000000, 0.000000)">
                <g id="组件" transform="translate(433.000000, 182.000000)">
                    <g id="编组-18" transform="translate(24.000000, 58.000000)">
                        <g transform="translate(16.000000, 20.000000)">
                            <g id="组件总数" transform="translate(0.000000, 3.000000)">
                                <rect id="矩形" fill="#08153A" x="0" y="0" width="16" height="16" rx="2"></rect>
                                <g id="编组-23" transform="translate(3.000000, 4.000000)" fill="#FFFFFF" fill-rule="nonzero">
                                    <path d="M9.28571428,2.85714286 L0.714285717,2.85714286 C0.321428571,2.85714286 0,3.17857143 0,3.57142857 L0,7.85714286 C0,8.24999999 0.321428571,8.57142857 0.714285717,8.57142857 L9.28571428,8.57142857 C9.67857143,8.57142857 10,8.24999999 10,7.85714286 L10,3.57142857 C10,3.17857142 9.67857143,2.85714286 9.28571428,2.85714286 Z" id="形状"></path>
                                    <path d="M8.57142857,1.42857142 L1.42857143,1.42857142 C1.03571429,1.42857142 0.714285717,1.75 0.714285717,2.14285714 L9.28571428,2.14285714 C9.28571428,1.75 8.96428571,1.42857142 8.57142857,1.42857142 Z" id="路径"></path>
                                    <path d="M7.85714286,0 L2.14285714,0 C1.75,0 1.42857143,0.321428571 1.42857143,0.714285717 L8.57142857,0.714285717 C8.57142857,0.321428571 8.24999999,0 7.85714286,0 L7.85714286,0 Z" id="路径"></path>
                                </g>
                            </g>
                        </g>
                    </g>
                </g>
            </g>
        </g>
    </g>
</svg>