<?xml version="1.0" standalone="no"?><!DOCTYPE svg PUBLIC "-//W3C//DTD SVG 1.1//EN" "http://www.w3.org/Graphics/SVG/1.1/DTD/svg11.dtd"><svg t="1658904774832" class="icon" viewBox="0 0 1024 1024" version="1.1" xmlns="http://www.w3.org/2000/svg" p-id="1597" xmlns:xlink="http://www.w3.org/1999/xlink" width="48" height="48"><defs><style type="text/css">@font-face { font-family: feedback-iconfont; src: url("//at.alicdn.com/t/font_1031158_u69w8yhxdu.woff2?t=1630033759944") format("woff2"), url("//at.alicdn.com/t/font_1031158_u69w8yhxdu.woff?t=1630033759944") format("woff"), url("//at.alicdn.com/t/font_1031158_u69w8yhxdu.ttf?t=1630033759944") format("truetype"); }
</style></defs><path d="M0 0m128 0l768 0q128 0 128 128l0 768q0 128-128 128l-768 0q-128 0-128-128l0-768q0-128 128-128Z" fill="#2467F6" p-id="1598"></path><path d="M853.312 832H170.688C147.136 832 128 807.296 128 783.744v-421.12h768v421.12c0 23.552-19.136 48.256-42.688 48.256z m-384-341.312h-256V576h256V490.688z m128 0H512V576h85.312V490.688z m0 170.624h-384v85.376h384v-85.376zM128 229.12C128 205.504 147.136 192 170.688 192h682.624c23.552 0 42.688 13.44 42.688 37.12v48.192H128V229.12z" fill="#FFFFFF" p-id="1599"></path></svg>