<?xml version="1.0" encoding="UTF-8"?>
<svg width="16px" height="16px" viewBox="0 0 16 16" version="1.1" xmlns="http://www.w3.org/2000/svg" xmlns:xlink="http://www.w3.org/1999/xlink">
    <title>配置组</title>
    <g id="页面-1" stroke="none" stroke-width="1" fill="none" fill-rule="evenodd">
        <g id="应用管理" transform="translate(-1316.000000, -324.000000)">
            <g id="编组-30备份-4" transform="translate(1292.000000, 272.000000)">
                <g id="编组-4" transform="translate(24.000000, 12.000000)">
                    <g id="编组-29" transform="translate(0.000000, 38.000000)">
                        <g id="配置组" transform="translate(0.000000, 2.000000)">
                            <rect id="矩形" fill="#08153A" x="0" y="0" width="16" height="16" rx="2"></rect>
                            <g id="编组" transform="translate(2.000000, 3.000000)" fill="#FFFFFF" fill-rule="nonzero">
                                <path d="M11.3333333,10 L0.66666667,10 C0.29866667,10 0,9.614 0,9.246 L0,2.66666667 L12,2.66666667 L12,9.246 C12,9.614 11.7013333,10 11.3333333,10 Z M5.33333333,4.66666667 L1.33333333,4.66666667 L1.33333333,6 L5.33333333,6 L5.33333333,4.66666667 Z M7.33333333,4.66666667 L6,4.66666667 L6,6 L7.33333333,6 L7.33333333,4.66666667 Z M7.33333333,7.33333333 L1.33333333,7.33333333 L1.33333333,8.66666667 L7.33333333,8.66666667 L7.33333333,7.33333333 Z M0,0.57933333 C0,0.21066667 0.29866667,0 0.66666667,0 L11.3333333,0 C11.7013333,0 12,0.21066667 12,0.57933333 L12,1.33333333 L0,1.33333333 L0,0.57933333 Z" id="形状"></path>
                            </g>
                        </g>
                    </g>
                </g>
            </g>
        </g>
    </g>
</svg>