<?xml version="1.0" encoding="UTF-8"?>
<svg width="16px" height="16px" viewBox="0 0 16 16" version="1.1" xmlns="http://www.w3.org/2000/svg" xmlns:xlink="http://www.w3.org/1999/xlink">
    <title>cpu使用率</title>
    <g id="页面-1" stroke="none" stroke-width="1" fill="none" fill-rule="evenodd">
        <g id="演示项目" transform="translate(-1110.000000, -263.000000)">
            <g id="内容区" transform="translate(220.000000, 0.000000)">
                <g id="资源使用" transform="translate(850.000000, 182.000000)">
                    <g id="CPU使用率" transform="translate(24.000000, 58.000000)">
                        <g id="编组-18" transform="translate(16.000000, 20.000000)">
                            <g id="cpu使用率" transform="translate(0.000000, 3.000000)">
                                <rect id="矩形" fill="#08153A" x="0" y="0" width="16" height="16" rx="2"></rect>
                                <path d="M6.91111112,3 L6.91111112,3.97777778 L8.86666666,3.97777778 L8.86666666,3 L9.84444445,3 L9.84444445,3.97777778 L11.3111111,3.97777778 C11.581117,3.97777779 11.8,4.19666079 11.8,4.46666667 L11.8,5.93333333 L12.7777778,5.93333333 L12.7777778,6.91111112 L11.8,6.91111112 L11.8,8.86666666 L12.7777778,8.86666666 L12.7777778,9.84444445 L11.8,9.84444445 L11.8,11.3111111 C11.8,11.581117 11.581117,11.8 11.3111111,11.8 L9.84444445,11.8 L9.84444445,12.7777778 L8.86666666,12.7777778 L8.86666666,11.8 L6.91111112,11.8 L6.91111112,12.7777778 L5.93333333,12.7777778 L5.93333333,11.8 L4.46666667,11.8 C4.19666079,11.8 3.97777779,11.581117 3.97777778,11.3111111 L3.97777778,9.84444445 L3,9.84444445 L3,8.86666666 L3.97777778,8.86666666 L3.97777778,6.91111112 L3,6.91111112 L3,5.93333333 L3.97777778,5.93333333 L3.97777778,4.46666667 C3.97777779,4.19666079 4.19666079,3.97777779 4.46666667,3.97777778 L5.93333333,3.97777778 L5.93333333,3 L6.91111112,3 Z M7.4,5.44444445 L5.44444445,5.44444445 L5.44444445,7.4 L7.4,7.4 L7.4,5.44444445 Z" id="形状结合" fill="#FFFFFF" fill-rule="nonzero"></path>
                            </g>
                        </g>
                    </g>
                </g>
            </g>
        </g>
    </g>
</svg>