<?xml version="1.0" encoding="UTF-8"?>
<svg width="24px" height="24px" viewBox="0 0 24 24" version="1.1" xmlns="http://www.w3.org/2000/svg" xmlns:xlink="http://www.w3.org/1999/xlink">
    <title>3d-cube-scan</title>
    <g id="页面-1" stroke="none" stroke-width="1" fill="none" fill-rule="evenodd">
        <g id="演示项目" transform="translate(-290.000000, -570.000000)" fill="#292D32" fill-rule="nonzero">
            <g id="内容区" transform="translate(220.000000, 0.000000)">
                <g id="应用列表" transform="translate(16.000000, 396.000000)">
                    <g id="列表" transform="translate(24.000000, 110.000000)">
                        <g id="编组-29" transform="translate(0.000000, 48.000000)">
                            <g id="3d-cube-scan" transform="translate(30.000000, 16.000000)">
                                <g transform="translate(1.250000, 1.250000)" id="Vector">
                                    <path d="M20,7.75 L20,5.75 C20,3.17000008 18.3299999,1.5 15.75,1.5 L5.75,1.5 C3.17000008,1.5 1.5,3.17000008 1.5,5.75 L1.5,7.75 C1.5,8.16 1.16,8.5 0.75,8.5 C0.340000004,8.5 0,8.16 0,7.75 L0,5.75 C0,2.30999994 2.30999994,0 5.75,0 L15.75,0 C19.1900001,0 21.5,2.30999994 21.5,5.75 L21.5,7.75 C21.5,8.16 21.16,8.5 20.75,8.5 C20.34,8.5 20,8.16 20,7.75 Z" opacity="0.400000006"></path>
                                    <path d="M5.75,21.5 C2.30999994,21.5 0,19.1900001 0,15.75 L0,13.75 C0,13.34 0.340000004,13 0.75,13 C1.16,13 1.5,13.34 1.5,13.75 L1.5,15.75 C1.5,18.3299999 3.17000008,20 5.75,20 L15.75,20 C18.3299999,20 20,18.3299999 20,15.75 L20,13.75 C20,13.34 20.34,13 20.75,13 C21.16,13 21.5,13.34 21.5,13.75 L21.5,15.75 C21.5,19.1900001 19.1900001,21.5 15.75,21.5 L5.75,21.5 Z" opacity="0.400000006"></path>
                                    <path d="M11.3900452,4.92996094 C10.9900452,4.71996094 10.5200409,4.71996094 10.1200409,4.92996094 L6.36004639,6.95999026 C6.09004638,7.10999027 5.92004395,7.39994875 5.92004395,7.72994876 C5.92004395,8.05994877 6.09004638,8.34996828 6.36004639,8.49996829 L10.1200409,10.5299973 C10.3200409,10.6399973 10.5400403,10.6899705 10.7600403,10.6899705 C10.9800403,10.6899705 11.2000397,10.6399973 11.4000397,10.5299973 L15.1600494,8.49996829 C15.4300494,8.34996828 15.6000519,8.05994877 15.6000519,7.72994876 C15.5900519,7.39994875 15.4200439,7.10999027 15.1500397,6.95999026 L11.3900452,4.92996094 Z"></path>
                                    <path d="M5.98999023,9.46991308 C5.71999022,9.33991309 5.40997863,9.34995215 5.14997864,9.50995214 C4.88997865,9.66995214 4.73999023,9.93993258 4.73999023,10.2399326 L4.73999023,13.5499301 C4.73999023,14.1199301 5.05999207,14.639957 5.56999207,14.889957 L9.06999207,16.639957 C9.18999206,16.6999569 9.31999145,16.7299228 9.45999146,16.7299228 C9.61999145,16.7299228 9.7699884,16.6899179 9.9099884,16.5999179 C10.1699884,16.4399179 10.3199921,16.1699374 10.3199921,15.8699374 L10.3199921,12.5599399 C10.3199921,11.9899399 10.0099902,11.4799131 9.48999023,11.2199131 L5.98999023,9.46991308 Z"></path>
                                    <path d="M15.5000458,9.46991308 L12.0000458,11.2199131 C11.4900458,11.4799131 11.1700439,11.9899399 11.1700439,12.5599399 L11.1700439,15.8699374 C11.1700439,16.1699374 11.3200476,16.4399179 11.5800476,16.5999179 C11.7200476,16.6899179 11.8700446,16.7299228 12.0300446,16.7299228 C12.1600446,16.7299228 12.290044,16.6999569 12.4200439,16.639957 L15.9200439,14.889957 C16.4300439,14.629957 16.7500458,14.1199301 16.7500458,13.5499301 L16.7500458,10.2399326 C16.7500458,9.93993258 16.6000421,9.66995214 16.3400421,9.50995214 C16.0800421,9.34995215 15.7700458,9.33991309 15.5000458,9.46991308 Z"></path>
                                </g>
                            </g>
                        </g>
                    </g>
                </g>
            </g>
        </g>
    </g>
</svg>