<?xml version="1.0" standalone="no"?><!DOCTYPE svg PUBLIC "-//W3C//DTD SVG 1.1//EN" "http://www.w3.org/Graphics/SVG/1.1/DTD/svg11.dtd"><svg t="1658905780443" class="icon" viewBox="0 0 1024 1024" version="1.1" xmlns="http://www.w3.org/2000/svg" p-id="1356" width="16" height="16" xmlns:xlink="http://www.w3.org/1999/xlink"><defs><style type="text/css">@font-face { font-family: feedback-iconfont; src: url("//at.alicdn.com/t/font_1031158_u69w8yhxdu.woff2?t=1630033759944") format("woff2"), url("//at.alicdn.com/t/font_1031158_u69w8yhxdu.woff?t=1630033759944") format("woff"), url("//at.alicdn.com/t/font_1031158_u69w8yhxdu.ttf?t=1630033759944") format("truetype"); }
</style></defs><path d="M0 0m128 0l768 0q128 0 128 128l0 768q0 128-128 128l-768 0q-128 0-128-128l0-768q0-128 128-128Z" fill="#08153A" p-id="1357"></path><path d="M698.688 138.688A149.312 149.312 0 0 1 848 288v270.72a37.312 37.312 0 0 1-37.312 37.248h-560a37.312 37.312 0 0 1-37.376-37.312V288a149.312 149.312 0 0 1 149.376-149.312h336z m-336 345.344h-37.376A28.16 28.16 0 0 0 297.344 512c0 15.36 12.672 28.032 27.968 28.032h37.376A28.16 28.16 0 0 0 390.656 512a28.16 28.16 0 0 0-27.968-28.032z m0-93.376h-37.376a28.16 28.16 0 0 0-27.968 28.032c0 15.296 12.672 27.968 27.968 27.968h37.376a28.16 28.16 0 0 0 27.968-27.968 28.16 28.16 0 0 0-27.968-28.032z m0-93.312h-37.376a28.16 28.16 0 0 0-27.968 27.968c0 15.36 12.672 28.032 27.968 28.032h37.376a28.16 28.16 0 0 0 27.968-28.032 28.16 28.16 0 0 0-27.968-27.968zM213.312 736a149.312 149.312 0 0 0 149.376 149.312h336A149.312 149.312 0 0 0 848 736v-46.72a37.312 37.312 0 0 0-37.312-37.248h-560a37.312 37.312 0 0 0-37.376 37.312v46.656z m485.376 65.28a39.232 39.232 0 0 1-26.496-10.752 39.232 39.232 0 0 1-10.88-26.56c0-9.664 4.16-19.392 10.88-26.496a39.04 39.04 0 0 1 52.992 0c6.72 7.104 10.816 16.832 10.816 26.56a39.232 39.232 0 0 1-10.88 26.496 39.232 39.232 0 0 1-26.432 10.816z" fill="#FFFFFF" p-id="1358"></path></svg>