<?xml version="1.0" encoding="UTF-8"?>
<svg width="16px" height="16px" viewBox="0 0 16 16" version="1.1" xmlns="http://www.w3.org/2000/svg" xmlns:xlink="http://www.w3.org/1999/xlink">
    <title>应用服务总数</title>
    <g id="页面-1" stroke="none" stroke-width="1" fill="none" fill-rule="evenodd">
        <g id="应用管理" transform="translate(-938.000000, -324.000000)">
            <g id="编组-30备份-3" transform="translate(920.000000, 272.000000)">
                <g id="编组-4" transform="translate(18.000000, 12.000000)">
                    <g id="编组-29" transform="translate(0.000000, 38.000000)">
                        <g id="应用服务总数" transform="translate(0.000000, 2.000000)">
                            <rect id="矩形" fill="#2467F6" x="0" y="0" width="16" height="16" rx="2"></rect>
                            <g id="编组" transform="translate(2.500000, 3.000000)" fill="#FFFFFF" fill-rule="nonzero">
                                <path d="M5.225,7.66666667 L10.395,7.66666667 C10.725,7.66666667 11,7.94444444 11,8.33333333 L11,9.33333333 C11,9.66666667 10.725,10 10.395,10 L5.225,10 C4.895,10 4.62000001,9.72222223 4.62,9.33333333 L4.62,9.22222223 L1.155,9.22222223 C0.934999995,9.22222223 0.769999995,9.05555556 0.770000008,8.83333333 L0.770000008,2.33333333 L0.605000008,2.33333333 C0.275000008,2.33333333 0,2 0,1.66666667 L0,0.666666667 C0,0.277777773 0.275000008,0 0.605000008,0 L1.65,0 C1.98,0 2.25499999,0.277777773 2.25500001,0.666666667 L2.25500001,1.66666667 C2.25500001,2 1.98000001,2.33333333 1.65,2.33333333 L1.485,2.33333333 L1.485,4.66666667 L4.56500001,4.66666667 L4.56500001,4.55555556 C4.56500001,4.22222223 4.84,3.88888889 5.17,3.88888889 L10.34,3.88888889 C10.67,3.88888889 10.945,4.16666667 10.945,4.55555556 L10.945,5.55555556 C10.945,5.88888889 10.67,6.22222223 10.34,6.22222223 L5.17,6.22222223 C4.84,6.22222223 4.56500001,5.94444445 4.56500001,5.55555556 L4.56500001,5.44444444 L1.485,5.44444444 L1.485,8.5 L4.56500001,8.5 L4.56500001,8.33333333 C4.56500001,8 4.84,7.66666667 5.225,7.66666667 Z M10.395,2.33333333 L3.63,2.33333333 C3.24499999,2.33333333 2.97,2 2.97,1.66666667 L2.97,0.666666667 C2.97,0.277777773 3.24499999,0 3.63,0 L10.395,0 C10.725,0 11,0.277777773 11,0.666666667 L11,1.66666667 C11,2 10.725,2.33333333 10.395,2.33333333 L10.395,2.33333333 Z" id="形状"></path>
                            </g>
                        </g>
                    </g>
                </g>
            </g>
        </g>
    </g>
</svg>