<?xml version="1.0" standalone="no"?><!DOCTYPE svg PUBLIC "-//W3C//DTD SVG 1.1//EN" "http://www.w3.org/Graphics/SVG/1.1/DTD/svg11.dtd"><svg t="1658905458669" class="icon" viewBox="0 0 1024 1024" version="1.1" xmlns="http://www.w3.org/2000/svg" p-id="1220" xmlns:xlink="http://www.w3.org/1999/xlink" width="48" height="48"><defs><style type="text/css">@font-face { font-family: feedback-iconfont; src: url("//at.alicdn.com/t/font_1031158_u69w8yhxdu.woff2?t=1630033759944") format("woff2"), url("//at.alicdn.com/t/font_1031158_u69w8yhxdu.woff?t=1630033759944") format("woff"), url("//at.alicdn.com/t/font_1031158_u69w8yhxdu.ttf?t=1630033759944") format("truetype"); }
</style></defs><path d="M0 0m128 0l768 0q128 0 128 128l0 768q0 128-128 128l-768 0q-128 0-128-128l0-768q0-128 128-128Z" fill="#08153A" p-id="1221"></path><path d="M494.4 682.688h330.88c21.12 0 38.72 17.728 38.72 42.624v64c0 21.376-17.6 42.688-38.72 42.688h-330.88c-21.12 0-38.72-17.792-38.72-42.688v-7.04H233.92a24.192 24.192 0 0 1-24.64-24.96v-416h-10.56c-21.12 0-38.72-21.312-38.72-42.624v-64c0-24.96 17.6-42.688 38.72-42.688H265.6c21.12 0 38.72 17.792 38.72 42.688v64c0 21.312-17.6 42.624-38.72 42.624h-10.56v149.376h197.12v-7.104c0-21.376 17.6-42.688 38.72-42.688h330.88c21.12 0 38.72 17.792 38.72 42.688v64c0 21.312-17.6 42.624-38.72 42.624H490.88c-21.12 0-38.72-17.792-38.72-42.624v-7.168h-197.12V736h197.12v-10.688c0-21.312 17.6-42.624 42.24-42.624z m330.88-341.376H392.32a43.008 43.008 0 0 1-42.24-42.624v-64c0-24.96 17.6-42.688 42.24-42.688h432.96c21.12 0 38.72 17.792 38.72 42.688v64c0 21.312-17.6 42.624-38.72 42.624z" fill="#FFFFFF" p-id="1222"></path></svg>