<?xml version="1.0" encoding="UTF-8"?>
<svg width="22px" height="22px" viewBox="0 0 22 22" version="1.1" xmlns="http://www.w3.org/2000/svg" xmlns:xlink="http://www.w3.org/1999/xlink">
    <title>切换</title>
    <g id="页面-1" stroke="none" stroke-width="1" fill="none" fill-rule="evenodd">
        <g id="应用管理" transform="translate(-509.000000, -335.000000)">
            <g id="编组-23" transform="translate(284.000000, 335.000000)">
                <g id="arrange-square" transform="translate(225.000000, 0.000000)">
                    <path d="M22,0 L22,22 L0,22 L0,0 L22,0 Z" id="Vector" opacity="0"></path>
                    <g id="编组-28" transform="translate(4.125000, 4.812500)" fill="#2467F6">
                        <path d="M13.2029131,7.42388132 C13.0981512,7.37967491 12.981748,7.3575723 12.8653459,7.3575723 L0.875928768,7.3575723 C0.398680095,7.3575723 0.00291289476,7.7333268 0.00291289476,8.18644252 C0.00291289476,8.63955824 0.398680095,9.01531274 0.875928768,9.01531274 L10.7701087,9.01531274 L8.7214317,10.9603941 C8.38386557,11.2808905 8.38386557,11.8113669 8.7214317,12.1318634 C8.89603488,12.2976374 9.11719914,12.375 9.33836316,12.375 C9.55952718,12.375 9.78068978,12.2976374 9.95529296,12.1318634 L13.4939184,8.77217718 C13.5753998,8.69481596 13.6336007,8.60640339 13.6801616,8.50693896 C13.7616431,8.3080101 13.7616431,8.07592574 13.6801616,7.87699688 C13.5870399,7.67806802 13.4240771,7.51229415 13.2029131,7.42388132 Z" id="Vector"></path>
                        <path d="M0.538359622,4.94835571 C0.643121531,4.99256212 0.759523597,5.01466474 0.875925715,5.01466474 L12.8769841,5.01466474 C13.3542328,5.01466474 13.75,4.63890997 13.75,4.18579425 C13.75,3.73267854 13.3542328,3.35692403 12.8769841,3.35692403 L2.98280396,3.35692403 L5.03148119,1.41184218 C5.36904732,1.09134571 5.36904732,0.560868843 5.03148119,0.240372366 C4.69391507,-0.080124111 4.13518468,-0.080124111 3.79761855,0.240372366 L0.258994792,3.58900774 C0.17751331,3.66636896 0.107671959,3.76583338 0.0611111135,3.86529781 C-0.0203703683,4.06422667 -0.0203703683,4.2963113 0.0611111135,4.49524016 C0.154232805,4.69416902 0.317195603,4.85994289 0.538359622,4.94835571 Z" id="Vector"></path>
                    </g>
                </g>
            </g>
        </g>
    </g>
</svg>