<?xml version="1.0" standalone="no"?><!DOCTYPE svg PUBLIC "-//W3C//DTD SVG 1.1//EN" "http://www.w3.org/Graphics/SVG/1.1/DTD/svg11.dtd"><svg t="1658904771934" class="icon" viewBox="0 0 1024 1024" version="1.1" xmlns="http://www.w3.org/2000/svg" p-id="1461" xmlns:xlink="http://www.w3.org/1999/xlink" width="48" height="48"><defs><style type="text/css">@font-face { font-family: feedback-iconfont; src: url("//at.alicdn.com/t/font_1031158_u69w8yhxdu.woff2?t=1630033759944") format("woff2"), url("//at.alicdn.com/t/font_1031158_u69w8yhxdu.woff?t=1630033759944") format("woff"), url("//at.alicdn.com/t/font_1031158_u69w8yhxdu.ttf?t=1630033759944") format("truetype"); }
</style></defs><path d="M0 0m128 0l768 0q128 0 128 128l0 768q0 128-128 128l-768 0q-128 0-128-128l0-768q0-128 128-128Z" fill="#2467F6" p-id="1462"></path><path d="M884.288 512.768h-177.344l-4.608 78.336c0 9.216-7.68 16.896-16.896 16.896H338.368a17.28 17.28 0 0 1-16.896-17.664L320 512.768H140.288l-5.376-4.608A19.328 19.328 0 0 1 128 492.8c0-6.144 2.304-11.52 6.912-14.592l361.6-344.064A21.44 21.44 0 0 1 511.936 128c6.144 0 11.52 2.304 15.36 6.144l362.432 344.064a19.968 19.968 0 0 1 0 29.184l-5.376 5.376zM320.704 704c0-26.112 21.504-47.616 47.616-47.616h288.64c26.176 0 47.68 21.504 47.68 47.616a47.872 47.872 0 0 1-47.616 47.616h-288.64A47.872 47.872 0 0 1 320.64 704z m46.848 144.384c0-26.112 23.04-47.616 51.456-47.616h184.32c28.352 0 51.392 21.504 51.392 47.616S631.68 896 603.264 896H419.84c-28.416 0-52.224-21.504-52.224-47.616z" fill="#FFFFFF" p-id="1463"></path></svg>