<?xml version="1.0" encoding="UTF-8"?>
<svg width="16px" height="16px" viewBox="0 0 16 16" version="1.1" xmlns="http://www.w3.org/2000/svg" xmlns:xlink="http://www.w3.org/1999/xlink">
    <title>待升级</title>
    <g id="页面-1" stroke="none" stroke-width="1" fill="none" fill-rule="evenodd">
        <g id="应用管理" transform="translate(-1190.000000, -324.000000)">
            <g id="编组-30备份-2" transform="translate(1168.000000, 272.000000)">
                <g id="编组-4" transform="translate(22.000000, 12.000000)">
                    <g id="编组-29" transform="translate(0.000000, 38.000000)">
                        <g id="待升级" transform="translate(0.000000, 2.000000)">
                            <rect id="矩形" fill="#08153A" x="0" y="0" width="16" height="16" rx="2"></rect>
                            <g id="SD卡内存卡" transform="translate(2.000000, 2.000000)" fill="#FFFFFF" fill-rule="nonzero">
                                <g id="编组">
                                    <path d="M11.8170457,6.012 L9.04573857,6.012 L8.97375656,7.236 C8.97375656,7.38 8.85378655,7.5 8.70982254,7.5 L3.28717821,7.5 C3.1432142,7.5 3.02324419,7.38 3.02324419,7.224 L2.99925019,6.012 L0.191952012,6.012 L0.107973007,5.94 C0.0359910022,5.88 0,5.796 0,5.7 C0,5.604 0.0359910022,5.52 0.107973007,5.472 L5.75856036,0.096 C5.81854536,0.036 5.90252437,0 5.99850037,0 C6.09447638,0 6.17845539,0.036 6.23844039,0.096 L11.9010247,5.472 C12.0329918,5.592 12.0329918,5.808 11.9010247,5.928 L11.8170457,6.012 Z M3.01124719,9 C3.01124719,8.592 3.34716321,8.256 3.75506123,8.256 L8.26593352,8.256 C8.67383154,8.256 9.00974756,8.592 9.00974756,9 C9.00974756,9.408 8.67383154,9.744 8.26593352,9.744 L3.75506123,9.744 C3.34716321,9.744 3.01124719,9.408 3.01124719,9 Z M3.74306423,11.256 C3.74306423,10.848 4.10297426,10.512 4.54686328,10.512 L7.42614346,10.512 C7.87003249,10.512 8.22994251,10.848 8.22994251,11.256 C8.22994251,11.664 7.87003249,12 7.42614346,12 L4.55886028,12 C4.11497126,12 3.74306423,11.664 3.74306423,11.256 Z" id="形状"></path>
                                </g>
                            </g>
                        </g>
                    </g>
                </g>
            </g>
        </g>
    </g>
</svg>