<?xml version="1.0" standalone="no"?><!DOCTYPE svg PUBLIC "-//W3C//DTD SVG 1.1//EN" "http://www.w3.org/Graphics/SVG/1.1/DTD/svg11.dtd"><svg t="1660112707003" class="icon" viewBox="0 0 1024 1024" version="1.1" xmlns="http://www.w3.org/2000/svg" p-id="2047" width="14" height="14" xmlns:xlink="http://www.w3.org/1999/xlink"><defs><style type="text/css">@font-face { font-family: feedback-iconfont; src: url("//at.alicdn.com/t/font_1031158_u69w8yhxdu.woff2?t=1630033759944") format("woff2"), url("//at.alicdn.com/t/font_1031158_u69w8yhxdu.woff?t=1630033759944") format("woff"), url("//at.alicdn.com/t/font_1031158_u69w8yhxdu.ttf?t=1630033759944") format("truetype"); }
</style></defs><path d="M183.488 96H325.76c33.024 0 64.64 13.568 87.168 37.568l153.216 162.56c22.592 24 54.144 37.568 87.168 37.568h187.136c65.984 0 119.488 53.248 119.488 118.848v356.608c0 31.488-12.608 61.76-35.008 84.032-22.4 22.272-52.8 34.816-84.48 34.816H183.488c-31.68 0-62.08-12.544-84.48-34.816A118.528 118.528 0 0 1 64 809.152V214.848c0-31.488 12.608-61.76 35.008-84.032 22.4-22.272 52.8-34.816 84.48-34.816z m89.6 445.696c0 16.448 13.376 29.76 29.824 29.76h238.976a29.76 29.76 0 0 0 29.824-29.76A29.76 29.76 0 0 0 541.888 512H302.912a29.76 29.76 0 0 0-29.824 29.696z m29.824 118.848a29.76 29.76 0 0 0-29.824 29.76c0 16.384 13.376 29.696 29.824 29.696h358.4a29.76 29.76 0 0 0 29.888-29.696 29.76 29.76 0 0 0-29.888-29.76h-358.4z" fill="#08153A" p-id="2048"></path><path d="M825.6 125.696c41.216 0 74.688 33.28 74.688 74.304v44.544a29.76 29.76 0 0 1-29.888 29.76h-201.792c-23.808 0-46.592-9.408-63.36-26.112L533.12 176.448a29.632 29.632 0 0 1 21.12-50.752h271.36z" fill="#A4ADC5" p-id="2049"></path></svg>