<?xml version="1.0" encoding="UTF-8"?>
<svg width="14px" height="12px" viewBox="0 0 14 12" version="1.1" xmlns="http://www.w3.org/2000/svg" xmlns:xlink="http://www.w3.org/1999/xlink">
    <title>集群</title>
    <g id="页面-1" stroke="none" stroke-width="1" fill="none" fill-rule="evenodd">
        <g id="总览确定版3" transform="translate(-27.000000, -302.000000)" fill-rule="nonzero">
            <g id="左侧导航" transform="translate(0.000000, 56.000000)">
                <g id="编组" transform="translate(0.000000, 228.000000)">
                    <g id="集群" transform="translate(27.000000, 18.000000)">
                        <path d="M13,4 L1,4 C0.45,4 0,4.45 0,5 L0,11 C0,11.55 0.45,12 1,12 L13,12 C13.55,12 14,11.55 14,11 L14,5 C14,4.44999999 13.55,4 13,4 Z" id="形状" fill="#08153A"></path>
                        <path d="M12,1.99999999 L2,1.99999999 C1.45,1.99999999 1,2.44999999 1,2.99999999 L13,2.99999999 C13,2.44999999 12.55,1.99999999 12,1.99999999 Z" id="路径" fill="#A4ADC5"></path>
                        <path d="M11,0 L3.00000001,0 C2.44999999,0 2.00000001,0.45 2.00000001,1 L12,1 C12,0.45 11.55,0 11,0 L11,0 Z" id="路径" fill="#A4ADC5"></path>
                    </g>
                </g>
            </g>
        </g>
    </g>
</svg>