<?xml version="1.0" standalone="no"?><!DOCTYPE svg PUBLIC "-//W3C//DTD SVG 1.1//EN" "http://www.w3.org/Graphics/SVG/1.1/DTD/svg11.dtd"><svg t="1658915320252" class="icon" viewBox="0 0 1047 1024" version="1.1" xmlns="http://www.w3.org/2000/svg" p-id="1835" xmlns:xlink="http://www.w3.org/1999/xlink" width="16.359375" height="16"><defs><style type="text/css">@font-face { font-family: feedback-iconfont; src: url("//at.alicdn.com/t/font_1031158_u69w8yhxdu.woff2?t=1630033759944") format("woff2"), url("//at.alicdn.com/t/font_1031158_u69w8yhxdu.woff?t=1630033759944") format("woff"), url("//at.alicdn.com/t/font_1031158_u69w8yhxdu.ttf?t=1630033759944") format("truetype"); }
</style></defs><path d="M889.417143 276.918857h121.856c19.968 0 36.571429-15.506286 36.571428-34.230857 0-18.651429-16.603429-34.157714-36.571428-34.157714h-121.856v-11.410286c0-72.484571-44.324571-114.029714-121.782857-114.029714H475.209143c-77.531429 0-121.856 41.545143-121.856 114.029714v11.410286H36.571429c-19.968 0-36.571429 15.506286-36.571429 34.157714 0 18.724571 16.603429 34.230857 36.571429 34.230857h316.708571v11.410286c0 72.411429 44.397714 113.956571 121.929143 113.956571h292.425143c77.458286 0 121.782857-41.472 121.782857-113.956571v-11.410286z" fill="#A4ADC5" p-id="1836"></path><path d="M694.491429 815.542857h316.781714c19.968 0 36.571429-15.579429 36.571428-34.230857 0-18.724571-16.603429-34.230857-36.571428-34.230857h-316.708572v-11.410286c0-72.411429-44.397714-113.956571-121.929142-113.956571H280.210286c-77.458286 0-121.782857 41.472-121.782857 113.956571v11.410286H36.571429c-19.968 0-36.571429 15.506286-36.571429 34.230857 0 18.651429 16.603429 34.157714 36.571429 34.157714h121.856v11.410286c0 72.484571 44.324571 114.029714 121.782857 114.029714h292.425143c77.531429 0 121.856-41.545143 121.856-114.029714v-11.410286z" fill="#08153A" p-id="1837"></path></svg>