<?xml version="1.0" standalone="no"?><!DOCTYPE svg PUBLIC "-//W3C//DTD SVG 1.1//EN" "http://www.w3.org/Graphics/SVG/1.1/DTD/svg11.dtd"><svg t="1658915357086" class="icon" viewBox="0 0 1024 1024" version="1.1" xmlns="http://www.w3.org/2000/svg" p-id="1971" width="14" height="14" xmlns:xlink="http://www.w3.org/1999/xlink"><defs><style type="text/css">@font-face { font-family: feedback-iconfont; src: url("//at.alicdn.com/t/font_1031158_u69w8yhxdu.woff2?t=1630033759944") format("woff2"), url("//at.alicdn.com/t/font_1031158_u69w8yhxdu.woff?t=1630033759944") format("woff"), url("//at.alicdn.com/t/font_1031158_u69w8yhxdu.ttf?t=1630033759944") format("truetype"); }
</style></defs><path d="M744.301714 0C858.404571 0 950.857143 91.648 950.857143 204.8v373.613714a48.786286 48.786286 0 0 1-48.786286 48.786286H121.929143A48.786286 48.786286 0 0 1 73.142857 578.413714V204.8C73.142857 91.648 165.595429 0 279.698286 0h464.603428zM279.698286 473.6h-51.638857c-21.211429 0-38.765714 17.408-38.765715 38.4 0 20.992 17.554286 38.4 38.765715 38.4h51.638857c21.138286 0 38.692571-17.408 38.692571-38.4a38.838857 38.838857 0 0 0-38.765714-38.4z m0-128h-51.638857c-21.211429 0-38.765714 17.408-38.765715 38.4 0 20.992 17.554286 38.4 38.765715 38.4h51.638857c21.138286 0 38.692571-17.408 38.692571-38.4a38.838857 38.838857 0 0 0-38.765714-38.4z m0-128h-51.638857c-21.211429 0-38.765714 17.408-38.765715 38.4 0 20.992 17.554286 38.4 38.765715 38.4h51.638857c21.138286 0 38.692571-17.408 38.692571-38.4a38.838857 38.838857 0 0 0-38.765714-38.4z" fill="#08153A" p-id="1972"></path><path d="M73.142857 819.2C73.142857 932.352 165.595429 1024 279.698286 1024h464.603428C858.404571 1024 950.857143 932.352 950.857143 819.2v-66.413714a48.786286 48.786286 0 0 0-48.786286-48.786286H121.929143a48.786286 48.786286 0 0 0-48.786286 48.786286v66.413714z m671.158857 89.6a54.564571 54.564571 0 0 1-36.571428-14.848 53.613714 53.613714 0 0 1-14.994286-36.352c0-13.312 5.632-26.624 14.921143-36.352 19.090286-18.944 53.686857-18.944 73.362286 0a53.613714 53.613714 0 0 1 14.921142 36.352 53.613714 53.613714 0 0 1-14.921142 36.352 54.564571 54.564571 0 0 1-36.717715 14.848z" fill="#A4ADC5" p-id="1973"></path></svg>