<?xml version="1.0" standalone="no"?><!DOCTYPE svg PUBLIC "-//W3C//DTD SVG 1.1//EN" "http://www.w3.org/Graphics/SVG/1.1/DTD/svg11.dtd"><svg t="1660290998333" class="icon" viewBox="0 0 1024 1024" version="1.1" xmlns="http://www.w3.org/2000/svg" p-id="3670" xmlns:xlink="http://www.w3.org/1999/xlink" width="14" height="14"><defs><style type="text/css">@font-face { font-family: feedback-iconfont; src: url("//at.alicdn.com/t/font_1031158_u69w8yhxdu.woff2?t=1630033759944") format("woff2"), url("//at.alicdn.com/t/font_1031158_u69w8yhxdu.woff?t=1630033759944") format("woff"), url("//at.alicdn.com/t/font_1031158_u69w8yhxdu.ttf?t=1630033759944") format("truetype"); }
</style></defs><path d="M368.201143 482.962286h233.837714V122.002286a37.083429 37.083429 0 0 0-37.156571-36.644572C313.563429 85.357714 138.24 260.681143 138.24 512c0 251.318857 175.323429 426.642286 426.642286 426.642286a36.717714 36.717714 0 0 0 36.717714-36.644572v-355.474285h-233.325714a31.305143 31.305143 0 0 1-32.036572-31.524572 32.182857 32.182857 0 0 1 31.963429-32.036571z" fill="#08153A" p-id="3671"></path><path d="M755.2 370.834286a32.182857 32.182857 0 0 0-45.202286 0 32.182857 32.182857 0 0 0 0 45.129143l66.56 66.56H601.6v64h174.518857l-66.56 66.56a32.182857 32.182857 0 0 0 0 45.275428 31.670857 31.670857 0 0 0 22.601143 9.362286c8.045714 0 16.237714-2.925714 22.674286-9.362286l121.124571-121.636571a30.793143 30.793143 0 0 0 0.438857-44.324572l-121.197714-121.636571z" fill="#A4ADC5" p-id="3672"></path></svg>