<?xml version="1.0" encoding="UTF-8"?>
<svg width="15px" height="15px" viewBox="0 0 15 15" version="1.1" xmlns="http://www.w3.org/2000/svg" xmlns:xlink="http://www.w3.org/1999/xlink">
    <title>市场</title>
    <g id="页面-1" stroke="none" stroke-width="1" fill="none" fill-rule="evenodd">
        <g id="总览确定版3" transform="translate(-27.000000, -205.000000)">
            <g id="左侧导航" transform="translate(0.000000, 56.000000)">
                <g id="编组" transform="translate(0.000000, 132.000000)">
                    <g id="市场" transform="translate(27.000000, 17.000000)">
                        <path d="M11.8317929,0 C12.6569669,0 13.3386129,0.644201167 13.385029,1.4680686 L13.9975344,12.3570543 C14.021593,12.7840847 13.8687636,13.2021815 13.5749837,13.5130306 C13.2812037,13.8238796 12.8723949,14.0001244 12.4446873,14.0001244 L1.5557016,14.0001244 C1.12792645,14.0001244 0.719015114,13.8240333 0.425149909,13.5131719 C0.131284705,13.2023105 -0.0215967754,12.7841521 0.00246557828,12.3570543 L0.615359909,1.4680686 C0.661775939,0.644201167 1.34342204,0 2.16859595,0 L11.8317929,0 Z M10.1113332,2.33335407 C9.83900032,2.33350326 9.58658107,2.47607795 9.44585909,2.70923573 C9.30513711,2.94239351 9.29661163,3.23216987 9.42338265,3.47319754 C8.96332301,4.50804007 8.09648197,5.05598939 7.00019444,5.05598939 C5.89690685,5.05598939 5.03356585,4.5115401 4.57661735,3.4747531 C4.76990358,3.10908582 4.64319577,2.65610192 4.28823786,2.44378846 C3.93327994,2.23147501 3.47424073,2.33410196 3.2434917,2.67736135 C3.01274267,3.02062074 3.09100278,3.48443605 3.42160709,3.73297763 C4.03216806,5.32588067 5.35906874,6.22227752 7.00019444,6.22227752 C8.63432009,6.22227752 9.96433191,5.32160285 10.578004,3.73336652 C10.8458298,3.5324972 10.955072,3.18278391 10.8492045,2.86518165 C10.7433371,2.54757939 10.4461154,2.33335407 10.1113332,2.33335407 Z" id="形状" fill="#08153A" fill-rule="nonzero"></path>
                        <circle id="椭圆形" fill="#A4ADC5" cx="11.5" cy="11.5" r="3.5"></circle>
                    </g>
                </g>
            </g>
        </g>
    </g>
</svg>