<?xml version="1.0" standalone="no"?><!DOCTYPE svg PUBLIC "-//W3C//DTD SVG 1.1//EN" "http://www.w3.org/Graphics/SVG/1.1/DTD/svg11.dtd"><svg t="1658990350176" class="icon" viewBox="0 0 1024 1024" version="1.1" xmlns="http://www.w3.org/2000/svg" p-id="1471" xmlns:xlink="http://www.w3.org/1999/xlink" width="14" height="14"><defs><style type="text/css">@font-face { font-family: feedback-iconfont; src: url("//at.alicdn.com/t/font_1031158_u69w8yhxdu.woff2?t=1630033759944") format("woff2"), url("//at.alicdn.com/t/font_1031158_u69w8yhxdu.woff?t=1630033759944") format("woff"), url("//at.alicdn.com/t/font_1031158_u69w8yhxdu.ttf?t=1630033759944") format("truetype"); }
</style></defs><path d="M877.714286 804.571429V694.857143c0-19.968-16.603429-36.571429-36.571429-36.571429s-36.571429 16.603429-36.571428 36.571429V804.571429H694.857143c-19.968 0-36.571429 16.603429-36.571429 36.571428s16.603429 36.571429 36.571429 36.571429H804.571429v109.714285c0 19.968 16.603429 36.571429 36.571428 36.571429s36.571429-16.603429 36.571429-36.571429V877.714286h109.714285c19.968 0 36.571429-16.603429 36.571429-36.571429s-16.603429-36.571429-36.571429-36.571428H877.714286z" fill="#A4ADC5" p-id="1472"></path><path d="M1024 102.4c0-72.923429-33.060571-102.4-115.126857-102.4H700.269714C618.203429 0 585.142857 29.476571 585.142857 102.4v234.057143C585.142857 409.965714 618.203429 438.857143 700.269714 438.857143h208.603429C990.939429 439.369143 1024 409.892571 1024 337.042286V102.326857z" fill="#08153A" p-id="1473"></path><path d="M438.857143 102.4C438.857143 29.403429 405.796571 0 323.730286 0H115.126857C33.060571 0 0 29.476571 0 102.4v234.057143C0 409.965714 33.060571 438.857143 115.126857 438.857143h208.603429C405.796571 439.369143 438.857143 409.892571 438.857143 337.042286V102.326857z" fill="#A4ADC5" p-id="1474"></path><path d="M438.857143 700.269714C438.857143 618.203429 405.796571 585.142857 323.730286 585.142857H115.126857C33.060571 585.142857 0 618.203429 0 700.269714v208.603429C0 990.939429 33.060571 1024 115.126857 1024h208.603429C405.796571 1024 438.857143 990.939429 438.857143 908.873143V700.269714z" fill="#08153A" p-id="1475"></path></svg>