<?xml version="1.0" standalone="no"?><!DOCTYPE svg PUBLIC "-//W3C//DTD SVG 1.1//EN" "http://www.w3.org/Graphics/SVG/1.1/DTD/svg11.dtd"><svg t="1660290990499" class="icon" viewBox="0 0 1024 1024" version="1.1" xmlns="http://www.w3.org/2000/svg" p-id="3533" xmlns:xlink="http://www.w3.org/1999/xlink" width="14" height="14"><defs><style type="text/css">@font-face { font-family: feedback-iconfont; src: url("//at.alicdn.com/t/font_1031158_u69w8yhxdu.woff2?t=1630033759944") format("woff2"), url("//at.alicdn.com/t/font_1031158_u69w8yhxdu.woff?t=1630033759944") format("woff"), url("//at.alicdn.com/t/font_1031158_u69w8yhxdu.ttf?t=1630033759944") format("truetype"); }
</style></defs><path d="M273.773714 486.180571c-139.702857 0-252.269714 115.931429-252.269714 258.194286 0 142.189714 112.64 258.121143 252.269714 258.121143 139.702857 0 252.269714-115.931429 252.269715-258.194286 0-142.189714-112.64-258.121143-252.342858-258.121143z" fill="#08153A" p-id="3534"></path><path d="M279.332571 671.158857a73.142857 73.142857 0 1 1 0 146.285714 73.142857 73.142857 0 0 1 0-146.285714zM660.48 268.068571l162.962286 154.843429-71.168 74.898286-162.962286-154.916572zM811.008 139.117714l175.542857 167.789715-71.387428 74.605714-175.542858-167.789714z" fill="#A4ADC5" p-id="3535"></path><path d="M786.505143 39.277714l77.897143 67.730286L438.125714 597.577143l-77.970285-67.730286z" fill="#08153A" p-id="3536"></path></svg>