<?xml version="1.0" standalone="no"?><!DOCTYPE svg PUBLIC "-//W3C//DTD SVG 1.1//EN" "http://www.w3.org/Graphics/SVG/1.1/DTD/svg11.dtd"><svg t="1658990383375" class="icon" viewBox="0 0 1024 1024" version="1.1" xmlns="http://www.w3.org/2000/svg" p-id="1882" xmlns:xlink="http://www.w3.org/1999/xlink" width="14" height="14"><defs><style type="text/css">@font-face { font-family: feedback-iconfont; src: url("//at.alicdn.com/t/font_1031158_u69w8yhxdu.woff2?t=1630033759944") format("woff2"), url("//at.alicdn.com/t/font_1031158_u69w8yhxdu.woff?t=1630033759944") format("woff"), url("//at.alicdn.com/t/font_1031158_u69w8yhxdu.ttf?t=1630033759944") format("truetype"); }
</style></defs><path d="M473.629257 559.762286c0 17.188571-8.192 32.914286-22.016 42.788571l-369.225143 263.314286a51.126857 51.126857 0 0 1-79.945143-32.256c-7.68-44.909714 2.56-97.572571 33.353143-154.404572l159.744-292.571428 150.528-275.894857a367.177143 367.177143 0 0 1 37.961143-56.32c30.72-36.571429 89.6-13.019429 89.6 34.962285v470.381715zM572.445257 602.550857a52.224 52.224 0 0 1-21.942857-42.788571V89.380571c0-47.981714 58.806857-71.460571 89.526857-34.962285 13.312 16.091429 26.112 34.962286 37.961143 56.32l150.528 275.894857 159.744 292.571428c30.72 56.832 40.96 109.494857 33.353143 154.331429a51.126857 51.126857 0 0 1-79.945143 32.402286L572.445257 602.550857z" fill="#08153A" p-id="1883"></path><path d="M481.821257 670.354286a59.172571 59.172571 0 0 1 61.44 0l314.953143 213.796571c83.456 56.832 69.632 103.277714-30.72 103.277714H197.076114c-99.84-0.512-113.664-46.957714-30.208-103.277714l314.953143-213.796571z" fill="#A4ADC5" p-id="1884"></path></svg>