<?xml version="1.0" standalone="no"?><!DOCTYPE svg PUBLIC "-//W3C//DTD SVG 1.1//EN" "http://www.w3.org/Graphics/SVG/1.1/DTD/svg11.dtd"><svg t="1658915538470" class="icon" viewBox="0 0 1024 1024" version="1.1" xmlns="http://www.w3.org/2000/svg" p-id="2273" xmlns:xlink="http://www.w3.org/1999/xlink" width="14" height="14"><defs><style type="text/css">@font-face { font-family: feedback-iconfont; src: url("//at.alicdn.com/t/font_1031158_u69w8yhxdu.woff2?t=1630033759944") format("woff2"), url("//at.alicdn.com/t/font_1031158_u69w8yhxdu.woff?t=1630033759944") format("woff"), url("//at.alicdn.com/t/font_1031158_u69w8yhxdu.ttf?t=1630033759944") format("truetype"); }
</style></defs><path d="M926.429104 555.257737c0 16.529011-16.090187 28.230965-31.741551 23.403909l-191.619504-59.460556a147.005802 147.005802 0 0 0-184.305782 184.598331L577.784 893.736769a24.42783 24.42783 0 0 1-23.403909 31.668414h-285.235139c-168.215595 0-269.144952-100.344259-269.144952-268.852403V268.852403C0 100.344259 100.929357 0 269.144952 0h388.1392c168.215595 0 269.144952 100.344259 269.144952 268.852403v286.405334z" fill="#08153A" p-id="2274"></path><path d="M893.736769 846.928951c-21.941165 7.313722-39.494096 24.42783-46.807818 46.807818l-26.841358 79.427016c-22.891948 68.675845-119.433072 67.213101-140.862276-1.462745L588.973993 681.858257c-17.552932-57.485851 35.617824-111.022293 92.664852-93.030538l290.574156 90.105049c68.310159 21.429204 69.260943 118.409151 1.023921 141.3011l-79.500153 26.76822z" fill="#A4ADC5" p-id="2275"></path></svg>