<?xml version="1.0" encoding="UTF-8"?>
<svg width="14px" height="14px" viewBox="0 0 14 14" version="1.1" xmlns="http://www.w3.org/2000/svg" xmlns:xlink="http://www.w3.org/1999/xlink">
    <title>设置</title>
    <g id="页面-1" stroke="none" stroke-width="1" fill="none" fill-rule="evenodd">
        <g id="总览确定版3" transform="translate(-27.000000, -397.000000)">
            <g id="左侧导航" transform="translate(0.000000, 56.000000)">
                <g id="编组" transform="translate(0.000000, 324.000000)">
                    <g id="设置" transform="translate(27.000000, 17.000000)">
                        <path d="M13.6811716,8.30663387 L12.4945096,7.407269 C12.5070008,7.28235721 12.519492,7.14495424 12.519492,6.9950601 C12.519492,6.84516595 12.5070008,6.70776299 12.4945096,6.5828512 L13.6811716,5.68348633 C14.0059423,5.43366276 14.0933805,4.9964715 13.8810305,4.62173614 L12.5569655,2.38581514 C12.4070714,2.12350039 12.1197743,1.96111506 11.819986,1.96111506 C11.7200565,1.96111506 11.6326183,1.97360624 11.5326889,2.01107978 L10.1211857,2.56069164 C9.88385326,2.39830632 9.63402969,2.26090335 9.38420611,2.14848274 L9.17185607,0.711997189 C9.10940018,0.29978829 8.75964718,0 8.3349471,0 L5.66183485,0 C5.23713477,0 4.88738176,0.29978829 4.82492587,0.69950601 L4.62506701,2.14848274 C4.37524344,2.26090335 4.13791104,2.39830632 3.88808746,2.56069164 L2.47658427,2.01107978 C2.37665484,1.97360624 2.27672541,1.96111506 2.17679598,1.96111506 C1.87700769,1.96111506 1.58971057,2.11100921 1.45230761,2.37332396 L0.115751481,4.62173614 C-0.0965985574,4.97148914 -0.00916030618,5.43366276 0.315610341,5.68348633 L1.50227232,6.5828512 C1.48978114,6.73274535 1.47728997,6.87014831 1.47728997,6.9950601 C1.47728997,7.11997189 1.47728997,7.25737485 1.50227232,7.407269 L0.315610341,8.30663387 C-0.00916030618,8.55645744 -0.0965985574,8.9936487 0.115751481,9.36838406 L1.43981643,11.6043051 C1.58971057,11.8666198 1.87700769,12.0290051 2.17679598,12.0290051 C2.27672541,12.0290051 2.36416366,12.016514 2.46409309,11.9790404 L3.87559629,11.4294286 C4.11292868,11.5918139 4.36275226,11.7292168 4.61257583,11.8416375 L4.82492587,13.278123 C4.87489059,13.6778407 5.23713477,13.9901202 5.66183485,13.9901202 L8.3349471,13.9901202 C8.75964718,13.9901202 9.10940018,13.6903319 9.17185607,13.2906142 L9.38420611,11.8416375 C9.63402969,11.7292168 9.87136208,11.5918139 10.1211857,11.4294286 L11.5326889,11.9790404 C11.6326183,12.016514 11.7325477,12.0290051 11.8324771,12.0290051 C12.1322654,12.0290051 12.4195625,11.879111 12.5569655,11.6167962 L13.8935216,9.35589288 C14.0933805,8.9936487 14.0059423,8.55645744 13.6811716,8.30663387 L13.6811716,8.30663387 Z M9.99627387,6.9950601 C9.99627387,8.64389569 8.64722657,9.992943 6.99839097,9.992943 C5.34955538,9.992943 4.00050807,8.64389569 4.00050807,6.9950601 C4.00050807,5.3462245 5.34955538,3.9971772 6.99839097,3.9971772 C8.64722657,3.9971772 9.99627387,5.3462245 9.99627387,6.9950601 Z" id="形状" fill="#08153A" fill-rule="nonzero"></path>
                        <circle id="椭圆形" fill="#A4ADC5" cx="7" cy="7" r="3"></circle>
                    </g>
                </g>
            </g>
        </g>
    </g>
</svg>