<?xml version="1.0" encoding="UTF-8"?>
<svg width="14px" height="15px" viewBox="0 0 14 15" version="1.1" xmlns="http://www.w3.org/2000/svg" xmlns:xlink="http://www.w3.org/1999/xlink">
    <title>团队管理</title>
    <g id="页面-1" stroke="none" stroke-width="1" fill="none" fill-rule="evenodd">
        <g id="总览确定版3" transform="translate(-27.000000, -253.000000)" fill-rule="nonzero">
            <g id="左侧导航" transform="translate(0.000000, 56.000000)">
                <g id="编组" transform="translate(0.000000, 180.000000)">
                    <g id="团队管理" transform="translate(27.000000, 17.000000)">
                        <path d="M5.62336402,7.54041992 C7.7001746,7.54041992 9.32967212,5.91092239 9.32967212,3.77020996 C9.32967212,1.69339938 7.63627273,0 5.62336402,0 C3.54655344,0 1.85315406,1.72535032 1.85315406,3.77020996 C1.85315406,5.91092239 3.54655346,7.54041992 5.62336402,7.54041992 Z M9.29772118,9.13796652 C8.59480069,8.62675161 7.66822366,8.40309508 6.80554849,8.40309508 L4.63288514,8.40309508 C3.77020997,8.40309508 2.84363294,8.6267516 2.14071245,9.10601559 C0.862675176,9.96869075 0,11.4384336 0,13.0998821 L0,13.3874405 C0,14.7932815 2.04485964,14.8252324 4.66483606,14.8252324 L6.83749944,14.8252324 C9.45747585,14.8252324 11.5023355,14.8252324 11.5023355,13.3874405 L11.5023355,13.0998821 C11.5023355,11.4384336 10.6077094,9.96869074 9.29772118,9.13796652 L9.29772118,9.13796652 Z" id="形状" fill="#08153A"></path>
                        <path d="M12.2691578,8.24334043 C11.9176976,8.01968391 11.3106299,7.60432179 10.7674641,7.54041992 C11.6620901,7.09310687 12.3650107,6.19848078 12.3650106,5.04824723 C12.3650106,3.48265157 11.246728,2.14071243 9.74503423,2.14071243 C9.74503423,2.14071243 9.84088703,2.14071243 9.74503423,2.14071243 C10.320151,2.74778013 10.4799057,3.73825903 10.3521019,4.60093419 C10.1603963,6.0067752 9.32967211,7.06115595 8.24334043,7.60432179 C8.91431,7.66822366 9.64918144,8.14748763 10.1923473,8.53089882 C11.4064827,9.29772118 12.205256,10.6716112 12.205256,12.205256 L12.205256,12.6206181 C13.2915877,12.5567162 13.9945082,12.3011088 13.9945082,11.5981883 L13.9945082,11.3745317 C14.090361,10.2242982 12.9081765,8.6267516 12.2691578,8.24334043 L12.2691578,8.24334043 Z" id="路径" fill="#A4ADC5"></path>
                    </g>
                </g>
            </g>
        </g>
    </g>
</svg>