<?xml version="1.0" standalone="no"?><!DOCTYPE svg PUBLIC "-//W3C//DTD SVG 1.1//EN" "http://www.w3.org/Graphics/SVG/1.1/DTD/svg11.dtd"><svg t="1658990375498" class="icon" viewBox="0 0 1024 1024" version="1.1" xmlns="http://www.w3.org/2000/svg" p-id="1745" xmlns:xlink="http://www.w3.org/1999/xlink" width="14" height="14"><defs><style type="text/css">@font-face { font-family: feedback-iconfont; src: url("//at.alicdn.com/t/font_1031158_u69w8yhxdu.woff2?t=1630033759944") format("woff2"), url("//at.alicdn.com/t/font_1031158_u69w8yhxdu.woff?t=1630033759944") format("woff"), url("//at.alicdn.com/t/font_1031158_u69w8yhxdu.ttf?t=1630033759944") format("truetype"); }
</style></defs><path d="M484.205714 580.388571c8.411429 0 16.969143 0.365714 25.6 1.024-10.24 14.336-12.068571 30.208-12.434285 59.465143v169.837715c0 65.243429 3.437714 71.68 64 113.225142l148.48 87.478858 0.877714 0.365714c-49.517714 10.605714-115.712 11.995429-190.464 12.214857H304.859429C143.506286 1023.268571 21.942857 1015.442286 21.942857 924.598857v-19.821714c0-114.834286 58.587429-216.283429 145.408-275.894857 47.762286-33.060571 110.665143-48.566857 169.252572-48.566857zM403.821714 0C540.525714 0 655.579429 117.028571 655.579429 260.388571c0 147.894857-110.665143 260.388571-251.684572 260.388572-141.092571 0-256.073143-112.493714-256.073143-260.388572C147.748571 119.222857 262.802286 0 403.748571 0z" fill="#08153A" p-id="1746"></path><path d="M683.812571 147.894857c101.961143 0 177.956571 92.672 177.956572 200.777143 0 42.861714-13.897143 80.530286-36.205714 111.030857l-14.043429-8.338286c-28.452571-16.676571-72.923429-16.676571-101.376 0L583.972571 525.531429l-2.194285-0.292572c69.485714-35.328 123.611429-101.888 140.507428-190.537143l2.779429-16.896c8.630857-59.611429-2.194286-128-41.252572-169.910857z" fill="#08153A" p-id="1747"></path><path d="M822.637714 507.757714c-24.137143-13.897143-61.952-13.897143-86.089143 0L609.28 581.266286c-50.468571 34.084571-53.394286 39.204571-53.394286 93.622857v132.388571c0 54.345143 2.925714 59.684571 54.345143 94.354286l126.098286 72.850286c12.141714 7.094857 27.794286 10.532571 43.154286 10.532571 15.36 0 30.939429-3.437714 42.861714-10.532571l127.268571-73.362286c50.468571-34.157714 53.394286-39.277714 53.394286-93.622857V674.816c0-54.418286-2.925714-59.538286-54.345143-94.134857l-126.025143-72.923429z m-122.441143 233.325715c0-43.593143 35.620571-79.213714 79.286858-79.213715 43.593143 0 79.213714 35.620571 79.213714 79.213715 0 43.666286-35.620571 79.286857-79.213714 79.286857a79.36 79.36 0 0 1-79.286858-79.286857z" fill="#A4ADC5" p-id="1748"></path></svg>