<?xml version="1.0" standalone="no"?><!DOCTYPE svg PUBLIC "-//W3C//DTD SVG 1.1//EN" "http://www.w3.org/Graphics/SVG/1.1/DTD/svg11.dtd"><svg t="1658915479516" class="icon" viewBox="0 0 1024 1024" version="1.1" xmlns="http://www.w3.org/2000/svg" p-id="2137" xmlns:xlink="http://www.w3.org/1999/xlink" width="14" height="14"><defs><style type="text/css">@font-face { font-family: feedback-iconfont; src: url("//at.alicdn.com/t/font_1031158_u69w8yhxdu.woff2?t=1630033759944") format("woff2"), url("//at.alicdn.com/t/font_1031158_u69w8yhxdu.woff?t=1630033759944") format("woff"), url("//at.alicdn.com/t/font_1031158_u69w8yhxdu.ttf?t=1630033759944") format("truetype"); }
</style></defs><path d="M1008.42721 513.025825h-236.543155l-6.143978 104.447627a22.674205 22.674205 0 0 1-22.52792 22.527919H280.512095a22.966775 22.966775 0 0 1-22.527919-23.551915L256.009326 513.025825H16.394181L9.226207 506.881847A25.746194 25.746194 0 0 1 0.01024 486.40192c0-8.191971 3.071989-15.359945 9.215967-19.455931L491.382199 8.195628A28.525612 28.525612 0 0 1 511.862126 0.003657a28.525612 28.525612 0 0 1 20.479927 8.191971l483.253131 458.750361a26.623905 26.623905 0 0 1 0 38.911862l-7.167974 7.167974z" fill="#08153A" p-id="2138"></path><path d="M256.960179 768.000914c0-34.815876 28.671898-63.487773 63.487774-63.487773h384.949482c34.742733 0 63.414631 28.671898 63.414631 63.487773a63.780344 63.780344 0 0 1-63.414631 63.487774H320.37481a63.780344 63.780344 0 0 1-63.487773-63.487774zM319.423956 960.512227c0-34.815876 30.71989-63.487773 68.607755-63.487774h245.68598c37.887865 0 68.607755 28.671898 68.607755 63.487774s-30.71989 63.487773-68.607755 63.487773H389.055708c-37.887865 0-69.631751-28.671898-69.631752-63.487773z" fill="#A4ADC5" p-id="2139"></path></svg>