<?xml version="1.0" encoding="UTF-8"?>
<svg width="14px" height="15px" viewBox="0 0 14 15" version="1.1" xmlns="http://www.w3.org/2000/svg" xmlns:xlink="http://www.w3.org/1999/xlink">
    <title>用户</title>
    <g id="页面-1" stroke="none" stroke-width="1" fill="none" fill-rule="evenodd">
        <g id="总览确定版3" transform="translate(-27.000000, -349.000000)" fill-rule="nonzero">
            <g id="左侧导航" transform="translate(0.000000, 56.000000)">
                <g id="编组" transform="translate(0.000000, 276.000000)">
                    <g id="用户" transform="translate(27.000000, 17.000000)">
                        <path d="M7,8.16048536 C4.66179541,8.16048536 0,9.32958765 0,11.6677922 L0,13.4214457 C0,13.7429488 0.263048017,14.0059968 0.584551148,14.0059968 L13.4154489,14.0059968 C13.736952,14.0059968 14,13.7429488 14,13.4214457 L14,11.6531785 C14,9.32958765 9.33820459,8.16048536 7,8.16048536 Z" id="形状" fill="#08153A"></path>
                        <path d="M6.78079332,0.00599683959 C5.04175365,0.108293291 3.60960334,1.52582982 3.49269311,3.26486949 C3.3611691,5.31079851 4.96868476,7.02061062 6.98538622,7.02061062 C8.92901879,7.02061062 10.4926931,5.44232252 10.4926931,3.51330373 C10.5073069,1.49660227 8.81210856,-0.11091339 6.78079332,0.00599683959 L6.78079332,0.00599683959 Z" id="路径" fill="#A4ADC5"></path>
                    </g>
                </g>
            </g>
        </g>
    </g>
</svg>