<?xml version="1.0" encoding="UTF-8"?>
<svg width="18px" height="18px" viewBox="0 0 18 18" version="1.1" xmlns="http://www.w3.org/2000/svg" xmlns:xlink="http://www.w3.org/1999/xlink">
    <title>vuesax/bold/import</title>
    <g id="页面-1" stroke="none" stroke-width="1" fill="none" fill-rule="evenodd">
        <g id="本地组件库" transform="translate(-1304.000000, -645.000000)">
            <g id="编组-23" transform="translate(236.000000, 186.000000)">
                <g id="列表备份-3" transform="translate(0.000000, 441.000000)">
                    <g id="import" transform="translate(1068.000000, 18.000000)">
                        <path d="M9.5625,6.75 L9.5625,10.0799997 L11.1149998,8.52749991 C11.2274998,8.41499991 11.3700003,8.36249971 11.5125003,8.36249971 C11.6550003,8.36249971 11.7975001,8.41499991 11.9100001,8.52749991 C12.1275001,8.74499991 12.1275001,9.10500024 11.9100001,9.32250023 L9.3974998,11.8349998 C9.17999981,12.0524998 8.82000019,12.0524998 8.6025002,11.8349998 L6.08999991,9.32250023 C5.87249992,9.10500024 5.87249992,8.74499991 6.08999991,8.52749991 C6.30749991,8.30999992 6.66750024,8.30999992 6.88500023,8.52749991 L8.4375,10.0799997 L8.4375,6.75 L5.39999986,6.75 C3,6.75 1.5,8.25 1.5,10.6499999 L1.5,12.5925007 C1.5,15.0000007 3,16.5 5.39999986,16.5 L12.5925007,16.5 C14.9925007,16.5 16.4925284,14.9999995 16.4925284,12.5999994 L16.4925284,10.6499999 C16.5,8.25 15,6.75 12.5999994,6.75 L9.5625,6.75 Z" id="Vector" fill="#292D32" fill-rule="nonzero"></path>
                        <path d="M9,1.5 C8.6925,1.5 8.4375,1.755 8.4375,2.0625 L8.4375,6.75 L9.5625,6.75 L9.5625,2.0625 C9.5625,1.755 9.3075,1.5 9,1.5 Z" id="Vector" fill="#292D32" fill-rule="nonzero"></path>
                        <path d="M18,0 L18,18 L0,18 L0,0 L18,0 Z" id="Vector" opacity="0" transform="translate(9.000000, 9.000000) rotate(-180.000000) translate(-9.000000, -9.000000) "></path>
                    </g>
                </g>
            </g>
        </g>
    </g>
</svg>