<?xml version="1.0" encoding="UTF-8"?>
<svg width="12px" height="12px" viewBox="0 0 12 12" version="1.1" xmlns="http://www.w3.org/2000/svg" xmlns:xlink="http://www.w3.org/1999/xlink">
    <title>开发集群</title>
    <g id="页面-1" stroke="none" stroke-width="1" fill="none" fill-rule="evenodd">
        <g id="总览确定版3" transform="translate(-1123.000000, -681.000000)">
            <g id="我的团队" transform="translate(1099.000000, 534.000000)">
                <g id="编组-12" transform="translate(12.000000, 88.000000)">
                    <g id="编组-20" transform="translate(11.000000, 13.000000)">
                        <g id="开发集群" transform="translate(1.000000, 46.000000)">
                            <path d="M0,0 L12,0 L12,12 L0,12 L0,0 Z" id="3d-cube-scan/linear-(Background)"></path>
                            <g id="3d-cube-scan">
                                <path d="M8.5,0.625 C10.1674066,0.625 11.3203878,1.73920424 11.373113,3.38178231 L11.375,3.5 L11.375,4.5 C11.375,4.70710678 11.2071068,4.875 11,4.875 C10.8101521,4.875 10.6532545,4.73392306 10.6284233,4.55088528 L10.625,4.5 L10.625,3.5 C10.625,2.24513305 9.84112086,1.42434606 8.61287355,1.37715 L8.5,1.375 L3.5,1.375 C2.24513305,1.375 1.42434606,2.15887914 1.37715,3.38712645 L1.375,3.5 L1.375,4.5 C1.375,4.70710678 1.20710678,4.875 1,4.875 C0.810152117,4.875 0.65325452,4.73392306 0.628423308,4.55088528 L0.625,4.5 L0.625,3.5 C0.625,1.83259338 1.73920424,0.679612239 3.38178231,0.626886998 L3.5,0.625 L8.5,0.625 Z" id="Vector" fill="#0070FF" fill-rule="nonzero"></path>
                                <path d="M11,7.125 C11.1898479,7.125 11.3467455,7.26607694 11.3715767,7.44911472 L11.375,7.5 L11.375,8.5 C11.375,10.1674066 10.2607958,11.3203878 8.61821769,11.373113 L8.5,11.375 L3.5,11.375 C1.83259338,11.375 0.679612239,10.2607958 0.626886998,8.61821769 L0.625,8.5 L0.625,7.5 C0.625,7.29289322 0.792893219,7.125 1,7.125 C1.18984788,7.125 1.34674548,7.26607694 1.37157669,7.44911472 L1.375,7.5 L1.375,8.5 C1.375,9.75486695 2.15887914,10.5756539 3.38712645,10.62285 L3.5,10.625 L8.5,10.625 C9.75486695,10.625 10.5756539,9.84112086 10.62285,8.61287355 L10.625,8.5 L10.625,7.5 C10.625,7.29289322 10.7928932,7.125 11,7.125 Z" id="Vector" fill="#0070FF" fill-rule="nonzero"></path>
                                <g id="Group" transform="translate(2.974913, 4.254943)" fill="#0070FF" fill-rule="nonzero">
                                    <path d="M0.0505693339,0.187100863 C0.14572679,0.0228228152 0.34644444,-0.0422308901 0.517275759,0.0280263417 L0.563023372,0.0505693339 L3.02456212,1.47656212 L5.46695395,0.0606635345 C5.63118925,-0.0345676801 5.83768643,0.00877367846 5.95098278,0.154661841 L5.97946925,0.196964937 C6.07470046,0.361200239 6.0313591,0.567697421 5.88547094,0.680993768 L5.84316784,0.709480232 L3.21317059,2.23447413 C3.11350079,2.29226728 2.99385199,2.30054711 2.88845485,2.25930594 L2.83710239,2.23455856 L0.187100863,0.699554902 C0.00788844716,0.595746767 -0.0532388006,0.366313279 0.0505693339,0.187100863 Z" id="Vector"></path>
                                    <path d="M3.15008653,1.53009141 C3.40321704,1.53009141 3.61241384,1.67116836 3.64552212,1.85420614 L3.65008653,1.90509141 L3.65008653,4.63009752 C3.65008653,4.8372043 3.42622891,5.00509752 3.15008653,5.00509752 C2.89695602,5.00509752 2.68775922,4.86402058 2.65465094,4.6809828 L2.65008653,4.63009752 L2.65008653,1.90509141 C2.65008653,1.69798463 2.87394416,1.53009141 3.15008653,1.53009141 Z" id="Vector"></path>
                                </g>
                                <path d="M5.19342259,2.8197329 L3.59769875,3.70733299 C3.11780877,3.97393846 2.74499512,4.60500467 2.74499512,5.15503907 L2.74499512,6.8500464 C2.74499512,7.40304391 3.11554942,8.03356952 3.59979066,8.29890718 L5.197702,9.18773903 C5.65040277,9.4407197 6.34792729,9.4407197 6.80589462,9.18850581 L8.40727847,8.2977549 C8.88717454,8.03114604 9.25999451,7.40007936 9.25999451,6.8500464 L9.25999451,5.15503907 C9.25999451,4.60204302 8.88943378,3.97151637 8.40519134,3.70617805 L6.80728477,2.81731832 C6.34966831,2.55865554 5.64863442,2.55865554 5.19342259,2.8197329 Z M6.4404709,3.47149036 L8.04269844,4.36275492 C8.28791928,4.49713119 8.50999451,4.87500272 8.50999451,5.15503907 L8.50999451,6.8500464 C8.50999451,7.12719669 8.28528423,7.50756037 8.04287475,7.64223229 L6.44270474,8.53231178 C6.21205746,8.65933111 5.78957649,8.65933111 5.56292263,8.5326716 L3.96227878,7.64232765 C3.71706567,7.50795566 3.49499512,7.13008615 3.49499512,6.8500464 L3.49499512,5.15503907 C3.49499512,4.87788528 3.71970085,4.49752315 3.96210725,4.36285294 L5.56655666,3.47032568 C5.79134484,3.34140306 6.21031644,3.34140306 6.4404709,3.47149036 Z" id="Vector" fill="#0070FF" fill-rule="nonzero"></path>
                                <path d="M12,0 L12,12 L0,12 L0,0 L12,0 Z" id="Vector" opacity="0"></path>
                            </g>
                        </g>
                    </g>
                </g>
            </g>
        </g>
    </g>
</svg>