<?xml version="1.0" encoding="UTF-8"?>
<svg width="26px" height="26px" viewBox="0 0 26 26" version="1.1" xmlns="http://www.w3.org/2000/svg" xmlns:xlink="http://www.w3.org/1999/xlink">
    <title>团队</title>
    <g id="页面-1" stroke="none" stroke-width="1" fill="none" fill-rule="evenodd">
        <g id="总览确定版3" transform="translate(-1122.000000, -635.000000)">
            <g id="我的团队" transform="translate(1099.000000, 534.000000)">
                <g id="编组-12" transform="translate(12.000000, 88.000000)">
                    <g id="团队" transform="translate(11.000000, 13.000000)">
                        <rect id="矩形" fill="#FFFFFF" x="0" y="0" width="26" height="26" rx="2"></rect>
                        <g id="box/bulk" transform="translate(1.000000, 1.000000)">
                            <path d="M0,0 L24,0 L24,24 L0,24 L0,0 Z" id="box/bulk-(Background)"></path>
                            <g id="box">
                                <path d="M24,0 L24,24 L0,24 L0,0 L24,0 Z" id="Vector" opacity="0"></path>
                                <path d="M19.3500366,8.21995115 L17.6100159,9.15995359 L16.1300354,9.94999266 L13.0600281,11.6099663 C12.7300281,11.7899663 12.3700305,11.8799858 12.0000305,11.8799858 C11.6300305,11.8799858 11.270033,11.7899663 10.940033,11.6099663 L4.65002441,8.21995115 C4.19002441,7.96995115 3.90002441,7.47998291 3.90002441,6.93998289 C3.90002441,6.39998287 4.19002441,5.90995359 4.65002441,5.65995359 L6.62002563,4.59995604 L8.19003296,3.74998045 L10.940033,2.27000001 C11.600033,1.91 12.4000244,1.91 13.0600281,2.27000001 L19.3500366,5.65995359 C19.8100366,5.90995359 20.1000366,6.39998287 20.1000366,6.93998289 C20.1000366,7.47998291 19.8100366,7.96995115 19.3500366,8.21995115 Z" id="Vector" fill="#CCD9FF" fill-rule="nonzero"></path>
                                <path d="M4.04995728,9.86000982 C3.59995729,9.63000982 3.07996339,9.66000739 2.64996338,9.92000738 C2.21996337,10.1800074 1.9699707,10.6400391 1.9699707,11.1400391 L1.9699707,16.6700072 C1.9699707,17.6300072 2.49995482,18.4900077 3.35995483,18.9200077 L9.20996094,21.8400517 C9.40996094,21.9400517 9.62997559,21.990015 9.84997559,21.990015 C10.1099756,21.990015 10.3699756,21.9200443 10.5999756,21.7700443 C11.0299756,21.5100443 11.2799683,21.0500126 11.2799683,20.5500126 L11.2799683,15.0200438 C11.2899683,14.0800439 10.7599634,13.2200026 9.89996338,12.7900026 L4.04995728,9.86000982 Z" id="Vector" fill="#CCD9FF" fill-rule="nonzero"></path>
                                <path d="M22.0299683,16.6800022 C22.0299683,17.6300022 21.4999841,18.4899924 20.6399841,18.9199924 L14.789978,21.8499851 C14.589978,21.9499851 14.3699634,22.0000095 14.1499634,22.0000095 C13.8899634,22.0000095 13.6299841,21.9300388 13.3899841,21.7800388 C12.9699841,21.5200388 12.7099609,21.0600071 12.7099609,20.5600071 L12.7099609,15.0399876 C12.7099609,14.0799876 13.2399756,13.2199878 14.0999756,12.7899878 L16.2499695,11.7199805 L17.7499695,10.9699804 L19.9499817,9.87000479 C20.3999817,9.64000478 20.9199756,9.66000234 21.3499756,9.93000235 C21.7699756,10.1900023 22.0299683,10.6500341 22.0299683,11.1500341 L22.0299683,16.6800022 Z" id="Vector" fill="#CCD9FF" fill-rule="nonzero"></path>
                                <path d="M16.1300049,9.95001221 L6.61999512,4.59997559 L8.19000244,3.75 L17.3699951,8.92999268 C17.4699951,8.98999267 17.5499854,9.06997314 17.6099854,9.15997314 L16.1300049,9.95001221 Z" id="Vector" fill="#08153A" fill-rule="nonzero"></path>
                                <path d="M17.75,13.2399902 C17.75,13.6499902 17.41,13.9899902 17,13.9899902 C16.59,13.9899902 16.25,13.6499902 16.25,13.2399902 L16.25,11.7199707 L17.75,10.9699707 L17.75,13.2399902 Z" id="Vector" fill="#08153A" fill-rule="nonzero"></path>
                            </g>
                        </g>
                    </g>
                </g>
            </g>
        </g>
    </g>
</svg>