<?xml version="1.0" encoding="UTF-8"?>
<svg width="11px" height="11px" viewBox="0 0 11 11" version="1.1" xmlns="http://www.w3.org/2000/svg" xmlns:xlink="http://www.w3.org/1999/xlink">
    <title>close</title>
    <g id="页面-1" stroke="none" stroke-width="1" fill="none" fill-rule="evenodd" fill-opacity="0.75">
        <g id="总览确定版3" transform="translate(-1398.000000, -361.000000)" fill="#FFFFFF" fill-rule="nonzero">
            <g id="close" transform="translate(1398.188702, 361.921973)">
                <path d="M5.34321946,4.51884194 L8.92012376,0.955828135 C9.13631028,0.740311982 9.13631028,0.391847552 8.92012376,0.177730854 C8.70393724,-0.0377852996 8.3543889,-0.0377852996 8.13960618,0.177730854 L4.56129808,3.73934521 L0.982989971,0.176331398 C0.766803448,-0.0391847552 0.417255108,-0.0391847552 0.202472393,0.176331398 C-0.0137141301,0.391847552 -0.0137141301,0.740311982 0.202472393,0.95442868 L3.77937669,4.51744249 L0.202472393,8.08185575 C-0.0137141301,8.29737191 -0.0137141301,8.64583634 0.202472393,8.85995304 C0.310565655,8.96771111 0.452350323,9.02089042 0.592731182,9.02089042 C0.73451585,9.02089042 0.87489671,8.96771111 0.982989971,8.85995304 L4.56129808,5.29693923 L8.13960618,8.86135249 C8.24769944,8.96911057 8.3880803,9.02228988 8.52986497,9.02228988 C8.67164964,9.02228988 8.8120305,8.96911057 8.92012376,8.86135249 C9.13631028,8.64583634 9.13631028,8.29737191 8.92012376,8.08325521 L5.34321946,4.51884194 Z" id="Shape"></path>
            </g>
        </g>
    </g>
</svg>