<?xml version="1.0" encoding="UTF-8"?>
<svg width="12px" height="12px" viewBox="0 0 12 12" version="1.1" xmlns="http://www.w3.org/2000/svg" xmlns:xlink="http://www.w3.org/1999/xlink">
    <title>arrow-right/linear</title>
    <g id="页面-1" stroke="none" stroke-width="1" fill="none" fill-rule="evenodd">
        <g id="总览确定版3" transform="translate(-1196.000000, -681.000000)">
            <g id="我的团队" transform="translate(1099.000000, 534.000000)">
                <g id="编组-12" transform="translate(12.000000, 88.000000)">
                    <g id="编组-20" transform="translate(11.000000, 13.000000)">
                        <g id="编组-28" transform="translate(1.000000, 46.000000)">
                            <g id="arrow-right/linear" transform="translate(73.000000, 0.000000)">
                                <path d="M0,0 L12,0 L12,12 L0,12 L0,0 Z" id="arrow-right/linear-(Background)"></path>
                                <g id="arrow-right">
                                    <path d="M6.94983131,2.6998618 C7.08296459,2.56672853 7.29129643,2.55462551 7.43810218,2.66355274 L7.48016139,2.69986182 L10.5151612,5.73486191 C10.6482945,5.8679952 10.6603975,6.07632704 10.5514703,6.22313278 L10.5151612,6.26519199 L7.48016137,9.3001916 C7.33371476,9.44663821 7.09627789,9.4466382 6.94983128,9.30019158 C6.81669801,9.1670583 6.80459499,8.95872645 6.91352223,8.81192071 L6.94983131,8.7698615 L9.7195,6 L6.94983128,3.23019189 C6.81669801,3.0970586 6.80459499,2.88872676 6.91352223,2.74192102 L6.94983131,2.6998618 Z" id="Vector" fill="#0070FF" fill-rule="nonzero"></path>
                                    <path d="M10.165,5.625 C10.3721067,5.625 10.54,5.84885763 10.54,6.125 C10.54,6.37813051 10.398923,6.58732731 10.2158852,6.62043559 L10.165,6.625 L1.75,6.625 C1.54289322,6.625 1.375,6.40114237 1.375,6.125 C1.375,5.87186949 1.51607694,5.66267269 1.69911472,5.62956441 L1.75,5.625 L10.165,5.625 Z" id="Vector" fill="#0070FF" fill-rule="nonzero"></path>
                                    <path d="M12,0 L12,12 L0,12 L0,0 L12,0 Z" id="Vector" opacity="0" transform="translate(6.000000, 6.000000) rotate(-180.000000) translate(-6.000000, -6.000000) "></path>
                                </g>
                            </g>
                        </g>
                    </g>
                </g>
            </g>
        </g>
    </g>
</svg>