<?xml version="1.0" encoding="UTF-8"?>
<svg width="14px" height="14px" viewBox="0 0 14 14" version="1.1" xmlns="http://www.w3.org/2000/svg" xmlns:xlink="http://www.w3.org/1999/xlink">
    <title>疑问</title>
    <g id="页面-1" stroke="none" stroke-width="1" fill="none" fill-rule="evenodd">
        <g id="总览确定版3" transform="translate(-385.000000, -211.000000)" fill="#B2C2F0" fill-rule="nonzero">
            <g id="疑问" transform="translate(385.000000, 211.000000)">
                <path d="M6.99997256,0 C3.1339689,0 0,3.13402453 0,7.00002869 C0,10.8660598 3.1339689,14.0001135 6.99997256,14.0001135 C10.8660324,14.0001135 14,10.8660598 14,7.00005614 C14,3.13405272 10.866061,0 6.99997256,0 L6.99997256,0 Z M7.67931187,11.0393351 C7.67931187,11.2326291 7.52265122,11.3893609 7.3293148,11.3893609 L6.27930863,11.3893609 C6.08605702,11.3893609 5.92934024,11.2326428 5.92934024,11.0393351 L5.92934024,9.98935764 C5.92934024,9.79600749 6.08605702,9.63930444 6.27930863,9.63930444 L7.3293148,9.63930444 C7.52263625,9.63930444 7.67931187,9.79599377 7.67931187,9.98935764 L7.67931187,11.0393351 Z M9.41428039,6.22158386 C9.27359701,6.42218109 8.95427099,6.67777763 8.55450224,6.98941875 L8.11147547,7.29513996 C7.89631172,7.46204258 7.70547624,7.65635443 7.63490878,7.8788214 C7.61079255,7.95461649 7.59272347,8.07919286 7.58056059,8.21373055 C7.57442862,8.28143036 7.51386365,8.4195417 7.37230464,8.4195417 L6.2328998,8.4195417 C6.04770107,8.4195417 6.01461392,8.27447889 6.01770859,8.20351603 C6.03820751,7.73844987 6.08083064,7.32557026 6.27031026,7.10328663 C6.65394455,6.65347804 7.52686102,6.09360098 7.52686102,6.09360098 C7.65975969,5.99330923 7.76735467,5.88428729 7.84873039,5.76547367 C7.99665961,5.56149986 8.11938615,5.33749241 8.11938615,5.09263304 C8.11938615,4.8111967 8.03710736,4.55466776 7.87201214,4.32246648 C7.70748197,4.09118349 7.40609779,3.97530899 6.96938635,3.97530899 C6.53948293,3.97530899 6.23473589,4.11799773 6.05510409,4.40324809 C5.92240375,4.61400361 5.83885264,4.80777784 5.80425495,5.01861792 C5.79194863,5.09324049 5.74409912,5.25041006 5.58459825,5.25041006 L4.4733211,5.25041006 C4.23669797,5.25041006 4.18459501,5.0970686 4.19143297,5.02315328 C4.27708958,4.09157915 4.6411293,3.45508837 5.28481067,3.04639099 C5.72249754,2.76499742 6.26098508,2.62379204 6.89973694,2.62379204 C7.73905734,2.62379204 8.43577469,2.82386713 8.99122865,3.22459657 C9.54569472,3.62477494 9.82372607,4.21775276 9.82372607,5.0039965 C9.82372607,5.48549272 9.65478901,5.89152066 9.41430783,6.22158386 L9.41428039,6.22158386 Z" id="形状"></path>
            </g>
        </g>
    </g>
</svg>